<mxfile host="Electron" agent="Mozilla/5.0 (Windows NT 10.0; Win64; x64) AppleWebKit/537.36 (KHTML, like Gecko) draw.io/22.1.15 Chrome/120.0.6099.109 Electron/28.1.0 Safari/537.36" modified="2024-12-29T18:09:28.564Z" etag="ni1xNe7vwYIE63MrFlZA" version="22.1.15" type="device">
  <diagram id="wkMIXvb-LM6qXzEm4NvD" name="Page-1">
    <mxGraphModel dx="2257" dy="713" grid="1" gridSize="10" guides="1" tooltips="1" connect="1" arrows="1" fold="1" page="1" pageScale="1" pageWidth="850" pageHeight="1100" math="0" shadow="0">
      <root>
        <mxCell id="0" />
        <mxCell id="1" parent="0" />
        <mxCell id="hvt9jh8VNVlTQo4yOcrB-44" value="" style="shape=table;startSize=0;container=1;collapsible=0;childLayout=tableLayout;fontSize=16;" parent="1" vertex="1">
          <mxGeometry x="40" y="1479" width="560" height="40" as="geometry" />
        </mxCell>
        <mxCell id="hvt9jh8VNVlTQo4yOcrB-45" value="" style="shape=tableRow;horizontal=0;startSize=0;swimlaneHead=0;swimlaneBody=0;strokeColor=inherit;top=0;left=0;bottom=0;right=0;collapsible=0;dropTarget=0;fillColor=none;points=[[0,0.5],[1,0.5]];portConstraint=eastwest;fontSize=16;" parent="hvt9jh8VNVlTQo4yOcrB-44" vertex="1">
          <mxGeometry width="560" height="40" as="geometry" />
        </mxCell>
        <mxCell id="hvt9jh8VNVlTQo4yOcrB-46" value="Dosage" style="shape=partialRectangle;html=1;whiteSpace=wrap;connectable=0;strokeColor=default;overflow=hidden;fillColor=#FFF2CC;top=0;left=0;bottom=0;right=0;pointerEvents=1;fontSize=16;" parent="hvt9jh8VNVlTQo4yOcrB-45" vertex="1">
          <mxGeometry width="112" height="40" as="geometry">
            <mxRectangle width="112" height="40" as="alternateBounds" />
          </mxGeometry>
        </mxCell>
        <mxCell id="hvt9jh8VNVlTQo4yOcrB-47" value="&lt;u style=&quot;font-size: 16px;&quot;&gt;Date&lt;/u&gt;" style="shape=partialRectangle;html=1;whiteSpace=wrap;connectable=0;strokeColor=default;overflow=hidden;fillColor=#FFF2CC;top=0;left=0;bottom=0;right=0;pointerEvents=1;fontSize=16;" parent="hvt9jh8VNVlTQo4yOcrB-45" vertex="1">
          <mxGeometry x="112" width="112" height="40" as="geometry">
            <mxRectangle width="112" height="40" as="alternateBounds" />
          </mxGeometry>
        </mxCell>
        <mxCell id="hvt9jh8VNVlTQo4yOcrB-48" value="&lt;u style=&quot;border-color: var(--border-color); font-size: 16px;&quot;&gt;DrugCode&lt;/u&gt;" style="shape=partialRectangle;html=1;whiteSpace=wrap;connectable=0;strokeColor=default;overflow=hidden;fillColor=#FFF2CC;top=0;left=0;bottom=0;right=0;pointerEvents=1;fontSize=16;" parent="hvt9jh8VNVlTQo4yOcrB-45" vertex="1">
          <mxGeometry x="224" width="112" height="40" as="geometry">
            <mxRectangle width="112" height="40" as="alternateBounds" />
          </mxGeometry>
        </mxCell>
        <mxCell id="hvt9jh8VNVlTQo4yOcrB-49" value="&lt;u style=&quot;border-color: var(--border-color); font-size: 16px;&quot;&gt;InpID&lt;/u&gt;" style="shape=partialRectangle;html=1;whiteSpace=wrap;connectable=0;strokeColor=default;overflow=hidden;fillColor=#FFF2CC;top=0;left=0;bottom=0;right=0;pointerEvents=1;fontSize=16;" parent="hvt9jh8VNVlTQo4yOcrB-45" vertex="1">
          <mxGeometry x="336" width="112" height="40" as="geometry">
            <mxRectangle width="112" height="40" as="alternateBounds" />
          </mxGeometry>
        </mxCell>
        <mxCell id="hvt9jh8VNVlTQo4yOcrB-50" value="&lt;u style=&quot;border-color: var(--border-color); font-size: 16px;&quot;&gt;NID&lt;/u&gt;" style="shape=partialRectangle;html=1;whiteSpace=wrap;connectable=0;strokeColor=default;overflow=hidden;fillColor=#FFF2CC;top=0;left=0;bottom=0;right=0;pointerEvents=1;fontSize=16;" parent="hvt9jh8VNVlTQo4yOcrB-45" vertex="1">
          <mxGeometry x="448" width="112" height="40" as="geometry">
            <mxRectangle width="112" height="40" as="alternateBounds" />
          </mxGeometry>
        </mxCell>
        <mxCell id="z46Pf0Tg11XiV23-vNkJ-55" value="" style="group;fontSize=16;" parent="1" vertex="1" connectable="0">
          <mxGeometry x="40" y="1050" width="350" height="70" as="geometry" />
        </mxCell>
        <mxCell id="z46Pf0Tg11XiV23-vNkJ-56" value="" style="shape=table;startSize=0;container=1;collapsible=0;childLayout=tableLayout;fontSize=16;" parent="z46Pf0Tg11XiV23-vNkJ-55" vertex="1">
          <mxGeometry y="31" width="560" height="40" as="geometry" />
        </mxCell>
        <mxCell id="z46Pf0Tg11XiV23-vNkJ-57" value="" style="shape=tableRow;horizontal=0;startSize=0;swimlaneHead=0;swimlaneBody=0;strokeColor=inherit;top=0;left=0;bottom=0;right=0;collapsible=0;dropTarget=0;fillColor=none;points=[[0,0.5],[1,0.5]];portConstraint=eastwest;fontSize=16;" parent="z46Pf0Tg11XiV23-vNkJ-56" vertex="1">
          <mxGeometry width="560" height="40" as="geometry" />
        </mxCell>
        <mxCell id="z46Pf0Tg11XiV23-vNkJ-58" value="&lt;u style=&quot;font-size: 16px;&quot;&gt;ID&lt;/u&gt;" style="shape=partialRectangle;html=1;whiteSpace=wrap;connectable=0;strokeColor=default;overflow=hidden;fillColor=#FFF2CC;top=0;left=0;bottom=0;right=0;pointerEvents=1;fontSize=16;" parent="z46Pf0Tg11XiV23-vNkJ-57" vertex="1">
          <mxGeometry width="112" height="40" as="geometry">
            <mxRectangle width="112" height="40" as="alternateBounds" />
          </mxGeometry>
        </mxCell>
        <mxCell id="z46Pf0Tg11XiV23-vNkJ-59" value="Disease" style="shape=partialRectangle;html=1;whiteSpace=wrap;connectable=0;strokeColor=default;overflow=hidden;fillColor=#FFF2CC;top=0;left=0;bottom=0;right=0;pointerEvents=1;fontSize=16;" parent="z46Pf0Tg11XiV23-vNkJ-57" vertex="1">
          <mxGeometry x="112" width="112" height="40" as="geometry">
            <mxRectangle width="112" height="40" as="alternateBounds" />
          </mxGeometry>
        </mxCell>
        <mxCell id="z46Pf0Tg11XiV23-vNkJ-61" value="Syptom" style="shape=partialRectangle;html=1;whiteSpace=wrap;connectable=0;strokeColor=default;overflow=hidden;fillColor=#FFF2CC;top=0;left=0;bottom=0;right=0;pointerEvents=1;fontSize=16;" parent="z46Pf0Tg11XiV23-vNkJ-57" vertex="1">
          <mxGeometry x="224" width="112" height="40" as="geometry">
            <mxRectangle width="112" height="40" as="alternateBounds" />
          </mxGeometry>
        </mxCell>
        <mxCell id="z46Pf0Tg11XiV23-vNkJ-118" value="Diagnosis" style="shape=partialRectangle;html=1;whiteSpace=wrap;connectable=0;strokeColor=default;overflow=hidden;fillColor=#FFF2CC;top=0;left=0;bottom=0;right=0;pointerEvents=1;fontSize=16;" parent="z46Pf0Tg11XiV23-vNkJ-57" vertex="1">
          <mxGeometry x="336" width="112" height="40" as="geometry">
            <mxRectangle width="112" height="40" as="alternateBounds" />
          </mxGeometry>
        </mxCell>
        <mxCell id="z46Pf0Tg11XiV23-vNkJ-142" value="PID" style="shape=partialRectangle;html=1;whiteSpace=wrap;connectable=0;strokeColor=default;overflow=hidden;fillColor=#FFF2CC;top=0;left=0;bottom=0;right=0;pointerEvents=1;fontSize=16;" parent="z46Pf0Tg11XiV23-vNkJ-57" vertex="1">
          <mxGeometry x="448" width="112" height="40" as="geometry">
            <mxRectangle width="112" height="40" as="alternateBounds" />
          </mxGeometry>
        </mxCell>
        <mxCell id="z46Pf0Tg11XiV23-vNkJ-60" value="Report" style="text;html=1;align=left;verticalAlign=middle;resizable=0;points=[];autosize=1;strokeColor=none;fillColor=none;fontSize=16;" parent="z46Pf0Tg11XiV23-vNkJ-55" vertex="1">
          <mxGeometry x="0.0016666666666722563" y="5" width="70" height="30" as="geometry" />
        </mxCell>
        <mxCell id="z46Pf0Tg11XiV23-vNkJ-70" value="" style="group;fontSize=16;" parent="1" vertex="1" connectable="0">
          <mxGeometry x="40" y="1287" width="350" height="70" as="geometry" />
        </mxCell>
        <mxCell id="z46Pf0Tg11XiV23-vNkJ-71" value="" style="shape=table;startSize=0;container=1;collapsible=0;childLayout=tableLayout;fontSize=16;" parent="z46Pf0Tg11XiV23-vNkJ-70" vertex="1">
          <mxGeometry y="31" width="336" height="40" as="geometry" />
        </mxCell>
        <mxCell id="z46Pf0Tg11XiV23-vNkJ-72" value="" style="shape=tableRow;horizontal=0;startSize=0;swimlaneHead=0;swimlaneBody=0;strokeColor=inherit;top=0;left=0;bottom=0;right=0;collapsible=0;dropTarget=0;fillColor=none;points=[[0,0.5],[1,0.5]];portConstraint=eastwest;fontSize=16;" parent="z46Pf0Tg11XiV23-vNkJ-71" vertex="1">
          <mxGeometry width="336" height="40" as="geometry" />
        </mxCell>
        <mxCell id="z46Pf0Tg11XiV23-vNkJ-73" value="&lt;u style=&quot;font-size: 16px;&quot;&gt;Code&lt;/u&gt;" style="shape=partialRectangle;html=1;whiteSpace=wrap;connectable=0;strokeColor=inherit;overflow=hidden;fillColor=#FFF2CC;top=0;left=0;bottom=0;right=0;pointerEvents=1;fontSize=16;" parent="z46Pf0Tg11XiV23-vNkJ-72" vertex="1">
          <mxGeometry width="112" height="40" as="geometry">
            <mxRectangle width="112" height="40" as="alternateBounds" />
          </mxGeometry>
        </mxCell>
        <mxCell id="tJ62XEXyl_DkogUCnTFh-1" value="Name" style="shape=partialRectangle;html=1;whiteSpace=wrap;connectable=0;strokeColor=inherit;overflow=hidden;fillColor=#FFF2CC;top=0;left=0;bottom=0;right=0;pointerEvents=1;fontSize=16;" parent="z46Pf0Tg11XiV23-vNkJ-72" vertex="1">
          <mxGeometry x="112" width="112" height="40" as="geometry">
            <mxRectangle width="112" height="40" as="alternateBounds" />
          </mxGeometry>
        </mxCell>
        <mxCell id="z46Pf0Tg11XiV23-vNkJ-74" value="RecDosage" style="shape=partialRectangle;html=1;whiteSpace=wrap;connectable=0;strokeColor=inherit;overflow=hidden;fillColor=#FFF2CC;top=0;left=0;bottom=0;right=0;pointerEvents=1;fontSize=16;" parent="z46Pf0Tg11XiV23-vNkJ-72" vertex="1">
          <mxGeometry x="224" width="112" height="40" as="geometry">
            <mxRectangle width="112" height="40" as="alternateBounds" />
          </mxGeometry>
        </mxCell>
        <mxCell id="z46Pf0Tg11XiV23-vNkJ-76" value="Drug" style="text;html=1;align=left;verticalAlign=middle;resizable=0;points=[];autosize=1;strokeColor=none;fillColor=none;fontSize=16;" parent="z46Pf0Tg11XiV23-vNkJ-70" vertex="1">
          <mxGeometry x="0.0016666666666722563" y="1" width="60" height="30" as="geometry" />
        </mxCell>
        <mxCell id="KHFLxESirtTAukJCEAW1-1" value="" style="group;fontSize=16;" parent="1" vertex="1" connectable="0">
          <mxGeometry x="40" y="1210" width="350" height="70" as="geometry" />
        </mxCell>
        <mxCell id="KHFLxESirtTAukJCEAW1-2" value="" style="shape=table;startSize=0;container=1;collapsible=0;childLayout=tableLayout;fontSize=16;" parent="KHFLxESirtTAukJCEAW1-1" vertex="1">
          <mxGeometry y="31" width="474" height="40" as="geometry" />
        </mxCell>
        <mxCell id="KHFLxESirtTAukJCEAW1-3" value="" style="shape=tableRow;horizontal=0;startSize=0;swimlaneHead=0;swimlaneBody=0;strokeColor=inherit;top=0;left=0;bottom=0;right=0;collapsible=0;dropTarget=0;fillColor=none;points=[[0,0.5],[1,0.5]];portConstraint=eastwest;fontSize=16;" parent="KHFLxESirtTAukJCEAW1-2" vertex="1">
          <mxGeometry width="474" height="40" as="geometry" />
        </mxCell>
        <mxCell id="KHFLxESirtTAukJCEAW1-4" value="&lt;u style=&quot;font-size: 16px;&quot;&gt;Num&lt;/u&gt;" style="shape=partialRectangle;html=1;whiteSpace=wrap;connectable=0;strokeColor=default;overflow=hidden;fillColor=#FFF2CC;top=0;left=0;bottom=0;right=0;pointerEvents=1;fontSize=16;" parent="KHFLxESirtTAukJCEAW1-3" vertex="1">
          <mxGeometry width="112" height="40" as="geometry">
            <mxRectangle width="112" height="40" as="alternateBounds" />
          </mxGeometry>
        </mxCell>
        <mxCell id="KHFLxESirtTAukJCEAW1-5" value="MaxCapacity" style="shape=partialRectangle;html=1;whiteSpace=wrap;connectable=0;strokeColor=default;overflow=hidden;fillColor=#FFF2CC;top=0;left=0;bottom=0;right=0;pointerEvents=1;fontSize=16;" parent="KHFLxESirtTAukJCEAW1-3" vertex="1">
          <mxGeometry x="112" width="112" height="40" as="geometry">
            <mxRectangle width="112" height="40" as="alternateBounds" />
          </mxGeometry>
        </mxCell>
        <mxCell id="KHFLxESirtTAukJCEAW1-6" value="CurrentCapacity" style="shape=partialRectangle;html=1;whiteSpace=wrap;connectable=0;strokeColor=default;overflow=hidden;fillColor=#FFF2CC;top=0;left=0;bottom=0;right=0;pointerEvents=1;fontSize=16;" parent="KHFLxESirtTAukJCEAW1-3" vertex="1">
          <mxGeometry x="224" width="138" height="40" as="geometry">
            <mxRectangle width="138" height="40" as="alternateBounds" />
          </mxGeometry>
        </mxCell>
        <mxCell id="KHFLxESirtTAukJCEAW1-7" value="NID" style="shape=partialRectangle;html=1;whiteSpace=wrap;connectable=0;strokeColor=default;overflow=hidden;fillColor=#FFF2CC;top=0;left=0;bottom=0;right=0;pointerEvents=1;fontSize=16;" parent="KHFLxESirtTAukJCEAW1-3" vertex="1">
          <mxGeometry x="362" width="112" height="40" as="geometry">
            <mxRectangle width="112" height="40" as="alternateBounds" />
          </mxGeometry>
        </mxCell>
        <mxCell id="KHFLxESirtTAukJCEAW1-8" value="Room" style="text;html=1;align=left;verticalAlign=middle;resizable=0;points=[];autosize=1;strokeColor=none;fillColor=none;fontSize=16;" parent="KHFLxESirtTAukJCEAW1-1" vertex="1">
          <mxGeometry x="0.0016666666666722563" y="1" width="70" height="30" as="geometry" />
        </mxCell>
        <mxCell id="KHFLxESirtTAukJCEAW1-9" value="" style="group;fontSize=16;" parent="1" vertex="1" connectable="0">
          <mxGeometry x="40" y="1367" width="350" height="70" as="geometry" />
        </mxCell>
        <mxCell id="KHFLxESirtTAukJCEAW1-10" value="" style="shape=table;startSize=0;container=1;collapsible=0;childLayout=tableLayout;fontSize=16;" parent="KHFLxESirtTAukJCEAW1-9" vertex="1">
          <mxGeometry y="31" width="336" height="40" as="geometry" />
        </mxCell>
        <mxCell id="KHFLxESirtTAukJCEAW1-11" value="" style="shape=tableRow;horizontal=0;startSize=0;swimlaneHead=0;swimlaneBody=0;strokeColor=inherit;top=0;left=0;bottom=0;right=0;collapsible=0;dropTarget=0;fillColor=none;points=[[0,0.5],[1,0.5]];portConstraint=eastwest;fontSize=16;" parent="KHFLxESirtTAukJCEAW1-10" vertex="1">
          <mxGeometry width="336" height="40" as="geometry" />
        </mxCell>
        <mxCell id="KHFLxESirtTAukJCEAW1-12" value="&lt;u style=&quot;font-size: 16px;&quot;&gt;DID&lt;/u&gt;" style="shape=partialRectangle;html=1;whiteSpace=wrap;connectable=0;strokeColor=#d6b656;overflow=hidden;fillColor=#FFF2CC;top=0;left=0;bottom=0;right=0;pointerEvents=1;fontSize=16;" parent="KHFLxESirtTAukJCEAW1-11" vertex="1">
          <mxGeometry width="112" height="40" as="geometry">
            <mxRectangle width="112" height="40" as="alternateBounds" />
          </mxGeometry>
        </mxCell>
        <mxCell id="KHFLxESirtTAukJCEAW1-13" value="&lt;u style=&quot;font-size: 16px;&quot;&gt;InPID&lt;/u&gt;" style="shape=partialRectangle;html=1;whiteSpace=wrap;connectable=0;strokeColor=#d6b656;overflow=hidden;fillColor=#FFF2CC;top=0;left=0;bottom=0;right=0;pointerEvents=1;fontSize=16;" parent="KHFLxESirtTAukJCEAW1-11" vertex="1">
          <mxGeometry x="112" width="112" height="40" as="geometry">
            <mxRectangle width="112" height="40" as="alternateBounds" />
          </mxGeometry>
        </mxCell>
        <mxCell id="-8c4adJR8eqZ8qMmH8AK-2" value="Date" style="shape=partialRectangle;html=1;whiteSpace=wrap;connectable=0;strokeColor=#d6b656;overflow=hidden;fillColor=#FFF2CC;top=0;left=0;bottom=0;right=0;pointerEvents=1;fontSize=16;" parent="KHFLxESirtTAukJCEAW1-11" vertex="1">
          <mxGeometry x="224" width="112" height="40" as="geometry">
            <mxRectangle width="112" height="40" as="alternateBounds" />
          </mxGeometry>
        </mxCell>
        <mxCell id="KHFLxESirtTAukJCEAW1-14" value="ExamineInPatient" style="text;html=1;align=left;verticalAlign=middle;resizable=0;points=[];autosize=1;strokeColor=none;fillColor=none;fontSize=16;" parent="KHFLxESirtTAukJCEAW1-9" vertex="1">
          <mxGeometry x="0.0016666666666722563" y="1" width="150" height="30" as="geometry" />
        </mxCell>
        <mxCell id="hvt9jh8VNVlTQo4yOcrB-38" value="" style="endArrow=none;dashed=1;html=1;rounded=0;startSize=7;jumpSize=16;fontSize=16;" parent="KHFLxESirtTAukJCEAW1-9" edge="1">
          <mxGeometry width="50" height="50" relative="1" as="geometry">
            <mxPoint x="148" y="63" as="sourcePoint" />
            <mxPoint x="188" y="63" as="targetPoint" />
          </mxGeometry>
        </mxCell>
        <mxCell id="hvt9jh8VNVlTQo4yOcrB-39" value="" style="endArrow=none;dashed=1;html=1;rounded=0;startSize=7;jumpSize=16;fontSize=16;" parent="KHFLxESirtTAukJCEAW1-9" edge="1">
          <mxGeometry width="50" height="50" relative="1" as="geometry">
            <mxPoint x="38" y="63" as="sourcePoint" />
            <mxPoint x="78" y="63" as="targetPoint" />
          </mxGeometry>
        </mxCell>
        <mxCell id="hvt9jh8VNVlTQo4yOcrB-41" value="" style="endArrow=none;dashed=1;html=1;rounded=0;startSize=7;jumpSize=16;fontSize=16;" parent="KHFLxESirtTAukJCEAW1-9" edge="1">
          <mxGeometry width="50" height="50" relative="1" as="geometry">
            <mxPoint x="485" y="144" as="sourcePoint" />
            <mxPoint x="525" y="144" as="targetPoint" />
          </mxGeometry>
        </mxCell>
        <mxCell id="hvt9jh8VNVlTQo4yOcrB-42" value="" style="endArrow=none;dashed=1;html=1;rounded=0;startSize=7;jumpSize=16;fontSize=16;" parent="KHFLxESirtTAukJCEAW1-9" edge="1">
          <mxGeometry width="50" height="50" relative="1" as="geometry">
            <mxPoint x="360" y="144" as="sourcePoint" />
            <mxPoint x="432" y="144" as="targetPoint" />
          </mxGeometry>
        </mxCell>
        <mxCell id="hvt9jh8VNVlTQo4yOcrB-43" value="" style="endArrow=none;dashed=1;html=1;rounded=0;startSize=7;jumpSize=16;fontSize=16;" parent="KHFLxESirtTAukJCEAW1-9" edge="1">
          <mxGeometry width="50" height="50" relative="1" as="geometry">
            <mxPoint x="238" y="144" as="sourcePoint" />
            <mxPoint x="326" y="145" as="targetPoint" />
          </mxGeometry>
        </mxCell>
        <mxCell id="KHFLxESirtTAukJCEAW1-17" value="" style="group;fontSize=16;" parent="1" vertex="1" connectable="0">
          <mxGeometry x="40" y="1130" width="350" height="70" as="geometry" />
        </mxCell>
        <mxCell id="KHFLxESirtTAukJCEAW1-18" value="" style="shape=table;startSize=0;container=1;collapsible=0;childLayout=tableLayout;fontSize=16;" parent="KHFLxESirtTAukJCEAW1-17" vertex="1">
          <mxGeometry y="31" width="560" height="40" as="geometry" />
        </mxCell>
        <mxCell id="KHFLxESirtTAukJCEAW1-19" value="" style="shape=tableRow;horizontal=0;startSize=0;swimlaneHead=0;swimlaneBody=0;strokeColor=inherit;top=0;left=0;bottom=0;right=0;collapsible=0;dropTarget=0;fillColor=none;points=[[0,0.5],[1,0.5]];portConstraint=eastwest;fontSize=16;" parent="KHFLxESirtTAukJCEAW1-18" vertex="1">
          <mxGeometry width="560" height="40" as="geometry" />
        </mxCell>
        <mxCell id="KHFLxESirtTAukJCEAW1-20" value="&lt;u style=&quot;font-size: 16px;&quot;&gt;ID&lt;/u&gt;" style="shape=partialRectangle;html=1;whiteSpace=wrap;connectable=0;strokeColor=default;overflow=hidden;fillColor=#FFF2CC;top=0;left=0;bottom=0;right=0;pointerEvents=1;fontSize=16;" parent="KHFLxESirtTAukJCEAW1-19" vertex="1">
          <mxGeometry width="112" height="40" as="geometry">
            <mxRectangle width="112" height="40" as="alternateBounds" />
          </mxGeometry>
        </mxCell>
        <mxCell id="KHFLxESirtTAukJCEAW1-21" value="Date" style="shape=partialRectangle;html=1;whiteSpace=wrap;connectable=0;strokeColor=default;overflow=hidden;fillColor=#FFF2CC;top=0;left=0;bottom=0;right=0;pointerEvents=1;fontSize=16;" parent="KHFLxESirtTAukJCEAW1-19" vertex="1">
          <mxGeometry x="112" width="112" height="40" as="geometry">
            <mxRectangle width="112" height="40" as="alternateBounds" />
          </mxGeometry>
        </mxCell>
        <mxCell id="KHFLxESirtTAukJCEAW1-22" value="Amount" style="shape=partialRectangle;html=1;whiteSpace=wrap;connectable=0;strokeColor=default;overflow=hidden;fillColor=#FFF2CC;top=0;left=0;bottom=0;right=0;pointerEvents=1;fontSize=16;" parent="KHFLxESirtTAukJCEAW1-19" vertex="1">
          <mxGeometry x="224" width="112" height="40" as="geometry">
            <mxRectangle width="112" height="40" as="alternateBounds" />
          </mxGeometry>
        </mxCell>
        <mxCell id="KHFLxESirtTAukJCEAW1-23" value="PID" style="shape=partialRectangle;html=1;whiteSpace=wrap;connectable=0;strokeColor=default;overflow=hidden;fillColor=#FFF2CC;top=0;left=0;bottom=0;right=0;pointerEvents=1;fontSize=16;" parent="KHFLxESirtTAukJCEAW1-19" vertex="1">
          <mxGeometry x="336" width="112" height="40" as="geometry">
            <mxRectangle width="112" height="40" as="alternateBounds" />
          </mxGeometry>
        </mxCell>
        <mxCell id="KHFLxESirtTAukJCEAW1-24" value="RID" style="shape=partialRectangle;html=1;whiteSpace=wrap;connectable=0;strokeColor=default;overflow=hidden;fillColor=#FFF2CC;top=0;left=0;bottom=0;right=0;pointerEvents=1;fontSize=16;" parent="KHFLxESirtTAukJCEAW1-19" vertex="1">
          <mxGeometry x="448" width="112" height="40" as="geometry">
            <mxRectangle width="112" height="40" as="alternateBounds" />
          </mxGeometry>
        </mxCell>
        <mxCell id="KHFLxESirtTAukJCEAW1-26" value="Bill" style="text;html=1;align=left;verticalAlign=middle;resizable=0;points=[];autosize=1;strokeColor=none;fillColor=none;fontSize=16;" parent="KHFLxESirtTAukJCEAW1-17" vertex="1">
          <mxGeometry x="0.0016666666666722563" y="5" width="40" height="30" as="geometry" />
        </mxCell>
        <mxCell id="KHFLxESirtTAukJCEAW1-27" value="" style="group;fontSize=16;" parent="1" vertex="1" connectable="0">
          <mxGeometry x="40" y="1449" width="350" height="70" as="geometry" />
        </mxCell>
        <mxCell id="KHFLxESirtTAukJCEAW1-35" value="GivenDrug" style="text;html=1;align=left;verticalAlign=middle;resizable=0;points=[];autosize=1;strokeColor=none;fillColor=none;fontSize=16;" parent="KHFLxESirtTAukJCEAW1-27" vertex="1">
          <mxGeometry x="0.0016666666666722563" y="5" width="100" height="30" as="geometry" />
        </mxCell>
        <mxCell id="z46Pf0Tg11XiV23-vNkJ-63" value="" style="group;fontSize=16;" parent="1" vertex="1" connectable="0">
          <mxGeometry x="40" y="970" width="350" height="70" as="geometry" />
        </mxCell>
        <mxCell id="z46Pf0Tg11XiV23-vNkJ-64" value="" style="shape=table;startSize=0;container=1;collapsible=0;childLayout=tableLayout;fontSize=16;" parent="z46Pf0Tg11XiV23-vNkJ-63" vertex="1">
          <mxGeometry y="31" width="336" height="40" as="geometry" />
        </mxCell>
        <mxCell id="z46Pf0Tg11XiV23-vNkJ-65" value="" style="shape=tableRow;horizontal=0;startSize=0;swimlaneHead=0;swimlaneBody=0;strokeColor=inherit;top=0;left=0;bottom=0;right=0;collapsible=0;dropTarget=0;fillColor=none;points=[[0,0.5],[1,0.5]];portConstraint=eastwest;fontSize=16;" parent="z46Pf0Tg11XiV23-vNkJ-64" vertex="1">
          <mxGeometry width="336" height="40" as="geometry" />
        </mxCell>
        <mxCell id="z46Pf0Tg11XiV23-vNkJ-66" value="&lt;u style=&quot;font-size: 16px;&quot;&gt;ID&lt;/u&gt;" style="shape=partialRectangle;html=1;whiteSpace=wrap;connectable=0;strokeColor=default;overflow=hidden;fillColor=#FFF2CC;top=0;left=0;bottom=0;right=0;pointerEvents=1;fontSize=16;" parent="z46Pf0Tg11XiV23-vNkJ-65" vertex="1">
          <mxGeometry width="112" height="40" as="geometry">
            <mxRectangle width="112" height="40" as="alternateBounds" />
          </mxGeometry>
        </mxCell>
        <mxCell id="z46Pf0Tg11XiV23-vNkJ-68" value="Description" style="shape=partialRectangle;html=1;whiteSpace=wrap;connectable=0;strokeColor=default;overflow=hidden;fillColor=#FFF2CC;top=0;left=0;bottom=0;right=0;pointerEvents=1;fontSize=16;" parent="z46Pf0Tg11XiV23-vNkJ-65" vertex="1">
          <mxGeometry x="112" width="112" height="40" as="geometry">
            <mxRectangle width="112" height="40" as="alternateBounds" />
          </mxGeometry>
        </mxCell>
        <mxCell id="z46Pf0Tg11XiV23-vNkJ-140" value="PID" style="shape=partialRectangle;html=1;whiteSpace=wrap;connectable=0;strokeColor=default;overflow=hidden;fillColor=#FFF2CC;top=0;left=0;bottom=0;right=0;pointerEvents=1;fontSize=16;" parent="z46Pf0Tg11XiV23-vNkJ-65" vertex="1">
          <mxGeometry x="224" width="112" height="40" as="geometry">
            <mxRectangle width="112" height="40" as="alternateBounds" />
          </mxGeometry>
        </mxCell>
        <mxCell id="z46Pf0Tg11XiV23-vNkJ-69" value="Prescription" style="text;html=1;align=left;verticalAlign=middle;resizable=0;points=[];autosize=1;strokeColor=none;fillColor=none;fontSize=16;" parent="z46Pf0Tg11XiV23-vNkJ-63" vertex="1">
          <mxGeometry x="0.0016666666666722563" y="6" width="110" height="30" as="geometry" />
        </mxCell>
        <mxCell id="vJWkl1YuLdmYbuqkYf-Q-59" value="" style="group;fontSize=16;" parent="1" vertex="1" connectable="0">
          <mxGeometry x="40" y="490" width="350" height="70" as="geometry" />
        </mxCell>
        <mxCell id="vJWkl1YuLdmYbuqkYf-Q-60" value="" style="shape=table;startSize=0;container=1;collapsible=0;childLayout=tableLayout;fontSize=16;strokeColor=default;" parent="vJWkl1YuLdmYbuqkYf-Q-59" vertex="1">
          <mxGeometry y="30" width="88.99999999999989" height="40" as="geometry" />
        </mxCell>
        <mxCell id="vJWkl1YuLdmYbuqkYf-Q-61" value="" style="shape=tableRow;horizontal=0;startSize=0;swimlaneHead=0;swimlaneBody=0;strokeColor=inherit;top=0;left=0;bottom=0;right=0;collapsible=0;dropTarget=0;fillColor=none;points=[[0,0.5],[1,0.5]];portConstraint=eastwest;fontSize=16;" parent="vJWkl1YuLdmYbuqkYf-Q-60" vertex="1">
          <mxGeometry width="88.99999999999989" height="40" as="geometry" />
        </mxCell>
        <mxCell id="vJWkl1YuLdmYbuqkYf-Q-62" value="&lt;u style=&quot;font-size: 16px;&quot;&gt;ID&lt;/u&gt;" style="shape=partialRectangle;html=1;whiteSpace=wrap;connectable=0;strokeColor=inherit;overflow=hidden;fillColor=#FFF2CC;top=0;left=0;bottom=0;right=0;pointerEvents=1;fontSize=16;" parent="vJWkl1YuLdmYbuqkYf-Q-61" vertex="1">
          <mxGeometry width="89" height="40" as="geometry">
            <mxRectangle width="89" height="40" as="alternateBounds" />
          </mxGeometry>
        </mxCell>
        <mxCell id="vJWkl1YuLdmYbuqkYf-Q-64" value="Nurse" style="text;html=1;align=left;verticalAlign=middle;resizable=0;points=[];autosize=1;strokeColor=none;fillColor=none;fontSize=16;" parent="vJWkl1YuLdmYbuqkYf-Q-59" vertex="1">
          <mxGeometry x="0.0016666666666722563" width="70" height="30" as="geometry" />
        </mxCell>
        <mxCell id="Zjd1liX5utcjjJwKV0hH-13" value="" style="group;fontSize=16;" parent="1" vertex="1" connectable="0">
          <mxGeometry x="40" y="570" width="350" height="70" as="geometry" />
        </mxCell>
        <mxCell id="Zjd1liX5utcjjJwKV0hH-14" value="" style="shape=table;startSize=0;container=1;collapsible=0;childLayout=tableLayout;fillColor=#FFF2CC;fontSize=16;strokeColor=default;" parent="Zjd1liX5utcjjJwKV0hH-13" vertex="1">
          <mxGeometry y="31" width="88.99999999999989" height="40" as="geometry" />
        </mxCell>
        <mxCell id="Zjd1liX5utcjjJwKV0hH-15" value="" style="shape=tableRow;horizontal=0;startSize=0;swimlaneHead=0;swimlaneBody=0;strokeColor=inherit;top=0;left=0;bottom=0;right=0;collapsible=0;dropTarget=0;fillColor=none;points=[[0,0.5],[1,0.5]];portConstraint=eastwest;fontStyle=4;fontSize=16;" parent="Zjd1liX5utcjjJwKV0hH-14" vertex="1">
          <mxGeometry width="88.99999999999989" height="40" as="geometry" />
        </mxCell>
        <mxCell id="Zjd1liX5utcjjJwKV0hH-19" value="&lt;u style=&quot;font-size: 16px;&quot;&gt;ID&lt;/u&gt;" style="shape=partialRectangle;html=1;whiteSpace=wrap;connectable=0;strokeColor=inherit;overflow=hidden;fillColor=none;top=0;left=0;bottom=0;right=0;pointerEvents=1;fontSize=16;" parent="Zjd1liX5utcjjJwKV0hH-15" vertex="1">
          <mxGeometry width="89" height="40" as="geometry">
            <mxRectangle width="89" height="40" as="alternateBounds" />
          </mxGeometry>
        </mxCell>
        <mxCell id="Zjd1liX5utcjjJwKV0hH-18" value="Receptionist" style="text;html=1;align=left;verticalAlign=middle;resizable=0;points=[];autosize=1;strokeColor=none;fillColor=none;fontSize=16;" parent="Zjd1liX5utcjjJwKV0hH-13" vertex="1">
          <mxGeometry x="0.0016666666666722563" y="1" width="110" height="30" as="geometry" />
        </mxCell>
        <mxCell id="z46Pf0Tg11XiV23-vNkJ-40" value="" style="group;fontSize=16;" parent="1" vertex="1" connectable="0">
          <mxGeometry x="40" y="810" width="350" height="70" as="geometry" />
        </mxCell>
        <mxCell id="z46Pf0Tg11XiV23-vNkJ-41" value="" style="shape=table;startSize=0;container=1;collapsible=0;childLayout=tableLayout;fontSize=16;fillColor=#FF3333;" parent="z46Pf0Tg11XiV23-vNkJ-40" vertex="1">
          <mxGeometry y="31" width="112" height="40" as="geometry" />
        </mxCell>
        <mxCell id="z46Pf0Tg11XiV23-vNkJ-42" value="" style="shape=tableRow;horizontal=0;startSize=0;swimlaneHead=0;swimlaneBody=0;strokeColor=inherit;top=0;left=0;bottom=0;right=0;collapsible=0;dropTarget=0;fillColor=none;points=[[0,0.5],[1,0.5]];portConstraint=eastwest;fontSize=16;" parent="z46Pf0Tg11XiV23-vNkJ-41" vertex="1">
          <mxGeometry width="112" height="40" as="geometry" />
        </mxCell>
        <mxCell id="z46Pf0Tg11XiV23-vNkJ-43" value="&lt;u style=&quot;font-size: 16px;&quot;&gt;ID&lt;/u&gt;" style="shape=partialRectangle;html=1;whiteSpace=wrap;connectable=0;strokeColor=inherit;overflow=hidden;fillColor=#FFF2CC;top=0;left=0;bottom=0;right=0;pointerEvents=1;fontSize=16;" parent="z46Pf0Tg11XiV23-vNkJ-42" vertex="1">
          <mxGeometry width="112" height="40" as="geometry">
            <mxRectangle width="112" height="40" as="alternateBounds" />
          </mxGeometry>
        </mxCell>
        <mxCell id="z46Pf0Tg11XiV23-vNkJ-45" value="OutPatient" style="text;html=1;align=left;verticalAlign=middle;resizable=0;points=[];autosize=1;strokeColor=none;fillColor=none;fontSize=16;" parent="z46Pf0Tg11XiV23-vNkJ-40" vertex="1">
          <mxGeometry x="0.0016666666666722563" y="1" width="100" height="30" as="geometry" />
        </mxCell>
        <mxCell id="Zjd1liX5utcjjJwKV0hH-7" value="" style="group;fontSize=16;" parent="1" vertex="1" connectable="0">
          <mxGeometry x="40" y="730" width="350" height="70" as="geometry" />
        </mxCell>
        <mxCell id="Zjd1liX5utcjjJwKV0hH-8" value="" style="shape=table;startSize=0;container=1;collapsible=0;childLayout=tableLayout;fontSize=16;" parent="Zjd1liX5utcjjJwKV0hH-7" vertex="1">
          <mxGeometry y="31" width="224" height="40" as="geometry" />
        </mxCell>
        <mxCell id="Zjd1liX5utcjjJwKV0hH-9" value="" style="shape=tableRow;horizontal=0;startSize=0;swimlaneHead=0;swimlaneBody=0;strokeColor=inherit;top=0;left=0;bottom=0;right=0;collapsible=0;dropTarget=0;fillColor=none;points=[[0,0.5],[1,0.5]];portConstraint=eastwest;fontSize=16;" parent="Zjd1liX5utcjjJwKV0hH-8" vertex="1">
          <mxGeometry width="224" height="40" as="geometry" />
        </mxCell>
        <mxCell id="Zjd1liX5utcjjJwKV0hH-10" value="&lt;u style=&quot;font-size: 16px;&quot;&gt;ID&lt;/u&gt;" style="shape=partialRectangle;html=1;whiteSpace=wrap;connectable=0;strokeColor=inherit;overflow=hidden;fillColor=#FFF2CC;top=0;left=0;bottom=0;right=0;pointerEvents=1;fontSize=16;" parent="Zjd1liX5utcjjJwKV0hH-9" vertex="1">
          <mxGeometry width="112" height="40" as="geometry">
            <mxRectangle width="112" height="40" as="alternateBounds" />
          </mxGeometry>
        </mxCell>
        <mxCell id="z46Pf0Tg11XiV23-vNkJ-143" value="RoNum" style="shape=partialRectangle;html=1;whiteSpace=wrap;connectable=0;strokeColor=#b85450;overflow=hidden;fillColor=#FFF2CC;top=0;left=0;bottom=0;right=0;pointerEvents=1;fontSize=16;" parent="Zjd1liX5utcjjJwKV0hH-9" vertex="1">
          <mxGeometry x="112" width="112" height="40" as="geometry">
            <mxRectangle width="112" height="40" as="alternateBounds" />
          </mxGeometry>
        </mxCell>
        <mxCell id="Zjd1liX5utcjjJwKV0hH-12" value="InPatient" style="text;html=1;align=left;verticalAlign=middle;resizable=0;points=[];autosize=1;strokeColor=none;fillColor=none;fontSize=16;" parent="Zjd1liX5utcjjJwKV0hH-7" vertex="1">
          <mxGeometry x="0.0016666666666722563" y="3" width="90" height="30" as="geometry" />
        </mxCell>
        <mxCell id="hvt9jh8VNVlTQo4yOcrB-26" value="" style="endArrow=none;dashed=1;html=1;rounded=0;startSize=7;jumpSize=16;fontSize=16;" parent="Zjd1liX5utcjjJwKV0hH-7" edge="1">
          <mxGeometry width="50" height="50" relative="1" as="geometry">
            <mxPoint x="137" y="61" as="sourcePoint" />
            <mxPoint x="203" y="61" as="targetPoint" />
          </mxGeometry>
        </mxCell>
        <mxCell id="vJWkl1YuLdmYbuqkYf-Q-29" value="" style="group;fontSize=16;strokeColor=none;" parent="1" vertex="1" connectable="0">
          <mxGeometry x="40" y="248" width="370" height="70" as="geometry" />
        </mxCell>
        <mxCell id="vJWkl1YuLdmYbuqkYf-Q-22" value="" style="shape=table;startSize=0;container=1;collapsible=0;childLayout=tableLayout;fontSize=16;" parent="vJWkl1YuLdmYbuqkYf-Q-29" vertex="1">
          <mxGeometry y="30" width="1089.9999999999998" height="40" as="geometry" />
        </mxCell>
        <mxCell id="vJWkl1YuLdmYbuqkYf-Q-23" value="" style="shape=tableRow;horizontal=0;startSize=0;swimlaneHead=0;swimlaneBody=0;strokeColor=inherit;top=0;left=0;bottom=0;right=0;collapsible=0;dropTarget=0;fillColor=none;points=[[0,0.5],[1,0.5]];portConstraint=eastwest;fontSize=16;" parent="vJWkl1YuLdmYbuqkYf-Q-22" vertex="1">
          <mxGeometry width="1089.9999999999998" height="40" as="geometry" />
        </mxCell>
        <mxCell id="vJWkl1YuLdmYbuqkYf-Q-24" value="&lt;u style=&quot;font-size: 16px;&quot;&gt;ID&lt;/u&gt;" style="shape=partialRectangle;html=1;whiteSpace=wrap;connectable=0;strokeColor=default;overflow=hidden;fillColor=#FFF2CC;top=0;left=0;bottom=0;right=0;pointerEvents=1;fontSize=16;strokeWidth=2;" parent="vJWkl1YuLdmYbuqkYf-Q-23" vertex="1">
          <mxGeometry width="95" height="40" as="geometry">
            <mxRectangle width="95" height="40" as="alternateBounds" />
          </mxGeometry>
        </mxCell>
        <mxCell id="8Dsh6u7uaTlUUuzgEMx3-6" value="EmpType" style="shape=partialRectangle;html=1;whiteSpace=wrap;connectable=0;strokeColor=default;overflow=hidden;fillColor=#FFF2CC;top=0;left=0;bottom=0;right=0;pointerEvents=1;fontSize=16;" parent="vJWkl1YuLdmYbuqkYf-Q-23" vertex="1">
          <mxGeometry x="95" width="95" height="40" as="geometry">
            <mxRectangle width="95" height="40" as="alternateBounds" />
          </mxGeometry>
        </mxCell>
        <mxCell id="vJWkl1YuLdmYbuqkYf-Q-25" value="Fname" style="shape=partialRectangle;html=1;whiteSpace=wrap;connectable=0;strokeColor=default;overflow=hidden;fillColor=#FFF2CC;top=0;left=0;bottom=0;right=0;pointerEvents=1;fontSize=16;" parent="vJWkl1YuLdmYbuqkYf-Q-23" vertex="1">
          <mxGeometry x="190" width="90" height="40" as="geometry">
            <mxRectangle width="90" height="40" as="alternateBounds" />
          </mxGeometry>
        </mxCell>
        <mxCell id="vJWkl1YuLdmYbuqkYf-Q-27" value="Lname" style="shape=partialRectangle;html=1;whiteSpace=wrap;connectable=0;strokeColor=default;overflow=hidden;fillColor=#FFF2CC;top=0;left=0;bottom=0;right=0;pointerEvents=1;fontSize=16;" parent="vJWkl1YuLdmYbuqkYf-Q-23" vertex="1">
          <mxGeometry x="280" width="90" height="40" as="geometry">
            <mxRectangle width="90" height="40" as="alternateBounds" />
          </mxGeometry>
        </mxCell>
        <mxCell id="HwMBdNMIfsRfjN06MDnB-2" value="DOB" style="shape=partialRectangle;html=1;whiteSpace=wrap;connectable=0;strokeColor=default;overflow=hidden;fillColor=#FFF2CC;top=0;left=0;bottom=0;right=0;pointerEvents=1;fontSize=16;" parent="vJWkl1YuLdmYbuqkYf-Q-23" vertex="1">
          <mxGeometry x="370" width="90" height="40" as="geometry">
            <mxRectangle width="90" height="40" as="alternateBounds" />
          </mxGeometry>
        </mxCell>
        <mxCell id="HwMBdNMIfsRfjN06MDnB-1" value="Phone" style="shape=partialRectangle;html=1;whiteSpace=wrap;connectable=0;strokeColor=default;overflow=hidden;fillColor=#FFF2CC;top=0;left=0;bottom=0;right=0;pointerEvents=1;fontSize=16;" parent="vJWkl1YuLdmYbuqkYf-Q-23" vertex="1">
          <mxGeometry x="460" width="90" height="40" as="geometry">
            <mxRectangle width="90" height="40" as="alternateBounds" />
          </mxGeometry>
        </mxCell>
        <mxCell id="cCFI0GgsyXBLgVqGb4j--1" value="Salary" style="shape=partialRectangle;html=1;whiteSpace=wrap;connectable=0;strokeColor=default;overflow=hidden;fillColor=#FFF2CC;top=0;left=0;bottom=0;right=0;pointerEvents=1;fontSize=16;" vertex="1" parent="vJWkl1YuLdmYbuqkYf-Q-23">
          <mxGeometry x="550" width="90" height="40" as="geometry">
            <mxRectangle width="90" height="40" as="alternateBounds" />
          </mxGeometry>
        </mxCell>
        <mxCell id="8Dsh6u7uaTlUUuzgEMx3-1" value="Gender" style="shape=partialRectangle;html=1;whiteSpace=wrap;connectable=0;strokeColor=default;overflow=hidden;fillColor=#FFF2CC;top=0;left=0;bottom=0;right=0;pointerEvents=1;fontSize=16;" parent="vJWkl1YuLdmYbuqkYf-Q-23" vertex="1">
          <mxGeometry x="640" width="90" height="40" as="geometry">
            <mxRectangle width="90" height="40" as="alternateBounds" />
          </mxGeometry>
        </mxCell>
        <mxCell id="8Dsh6u7uaTlUUuzgEMx3-5" value="Street" style="shape=partialRectangle;html=1;whiteSpace=wrap;connectable=0;strokeColor=default;overflow=hidden;fillColor=#FFF2CC;top=0;left=0;bottom=0;right=0;pointerEvents=1;fontSize=16;" parent="vJWkl1YuLdmYbuqkYf-Q-23" vertex="1">
          <mxGeometry x="730" width="90" height="40" as="geometry">
            <mxRectangle width="90" height="40" as="alternateBounds" />
          </mxGeometry>
        </mxCell>
        <mxCell id="8Dsh6u7uaTlUUuzgEMx3-3" value="City" style="shape=partialRectangle;html=1;whiteSpace=wrap;connectable=0;strokeColor=default;overflow=hidden;fillColor=#FFF2CC;top=0;left=0;bottom=0;right=0;pointerEvents=1;fontSize=16;" parent="vJWkl1YuLdmYbuqkYf-Q-23" vertex="1">
          <mxGeometry x="820" width="90" height="40" as="geometry">
            <mxRectangle width="90" height="40" as="alternateBounds" />
          </mxGeometry>
        </mxCell>
        <mxCell id="8Dsh6u7uaTlUUuzgEMx3-4" value="State" style="shape=partialRectangle;html=1;whiteSpace=wrap;connectable=0;strokeColor=default;overflow=hidden;fillColor=#FFF2CC;top=0;left=0;bottom=0;right=0;pointerEvents=1;fontSize=16;" parent="vJWkl1YuLdmYbuqkYf-Q-23" vertex="1">
          <mxGeometry x="910" width="90" height="40" as="geometry">
            <mxRectangle width="90" height="40" as="alternateBounds" />
          </mxGeometry>
        </mxCell>
        <mxCell id="8Dsh6u7uaTlUUuzgEMx3-7" value="DeptID" style="shape=partialRectangle;html=1;whiteSpace=wrap;connectable=0;strokeColor=default;overflow=hidden;fillColor=#FFF2CC;top=0;left=0;bottom=0;right=0;pointerEvents=1;fontSize=16;" parent="vJWkl1YuLdmYbuqkYf-Q-23" vertex="1">
          <mxGeometry x="1000" width="90" height="40" as="geometry">
            <mxRectangle width="90" height="40" as="alternateBounds" />
          </mxGeometry>
        </mxCell>
        <mxCell id="vJWkl1YuLdmYbuqkYf-Q-28" value="Employee" style="text;html=1;align=left;verticalAlign=middle;resizable=0;points=[];autosize=1;strokeColor=none;fillColor=none;fontSize=16;" parent="vJWkl1YuLdmYbuqkYf-Q-29" vertex="1">
          <mxGeometry x="-0.0016666666666651508" width="90" height="30" as="geometry" />
        </mxCell>
        <mxCell id="vJWkl1YuLdmYbuqkYf-Q-31" value="" style="group;fontSize=16;" parent="1" vertex="1" connectable="0">
          <mxGeometry x="40" y="328" width="350" height="70" as="geometry" />
        </mxCell>
        <mxCell id="vJWkl1YuLdmYbuqkYf-Q-32" value="" style="shape=table;startSize=0;container=1;collapsible=0;childLayout=tableLayout;fontSize=16;" parent="vJWkl1YuLdmYbuqkYf-Q-31" vertex="1">
          <mxGeometry y="30" width="174.9999999999999" height="40" as="geometry" />
        </mxCell>
        <mxCell id="vJWkl1YuLdmYbuqkYf-Q-33" value="" style="shape=tableRow;horizontal=0;startSize=0;swimlaneHead=0;swimlaneBody=0;strokeColor=inherit;top=0;left=0;bottom=0;right=0;collapsible=0;dropTarget=0;fillColor=none;points=[[0,0.5],[1,0.5]];portConstraint=eastwest;fontSize=16;" parent="vJWkl1YuLdmYbuqkYf-Q-32" vertex="1">
          <mxGeometry width="174.9999999999999" height="40" as="geometry" />
        </mxCell>
        <mxCell id="vJWkl1YuLdmYbuqkYf-Q-34" value="&lt;u style=&quot;font-size: 16px;&quot;&gt;ID&lt;/u&gt;" style="shape=partialRectangle;html=1;whiteSpace=wrap;connectable=0;strokeColor=inherit;overflow=hidden;fillColor=#FFF2CC;top=0;left=0;bottom=0;right=0;pointerEvents=1;fontSize=16;" parent="vJWkl1YuLdmYbuqkYf-Q-33" vertex="1">
          <mxGeometry width="89" height="40" as="geometry">
            <mxRectangle width="89" height="40" as="alternateBounds" />
          </mxGeometry>
        </mxCell>
        <mxCell id="vJWkl1YuLdmYbuqkYf-Q-35" value="Name" style="shape=partialRectangle;html=1;whiteSpace=wrap;connectable=0;strokeColor=inherit;overflow=hidden;fillColor=#FFF2CC;top=0;left=0;bottom=0;right=0;pointerEvents=1;fontSize=16;" parent="vJWkl1YuLdmYbuqkYf-Q-33" vertex="1">
          <mxGeometry x="89" width="86" height="40" as="geometry">
            <mxRectangle width="86" height="40" as="alternateBounds" />
          </mxGeometry>
        </mxCell>
        <mxCell id="vJWkl1YuLdmYbuqkYf-Q-38" value="Department" style="text;html=1;align=left;verticalAlign=middle;resizable=0;points=[];autosize=1;strokeColor=none;fillColor=none;fontSize=16;" parent="vJWkl1YuLdmYbuqkYf-Q-31" vertex="1">
          <mxGeometry x="0.0016666666666722563" width="110" height="30" as="geometry" />
        </mxCell>
        <mxCell id="vJWkl1YuLdmYbuqkYf-Q-81" value="" style="group;fontSize=16;" parent="1" vertex="1" connectable="0">
          <mxGeometry x="40" y="410" width="370" height="70" as="geometry" />
        </mxCell>
        <mxCell id="vJWkl1YuLdmYbuqkYf-Q-82" value="" style="shape=table;startSize=0;container=1;collapsible=0;childLayout=tableLayout;fontSize=16;strokeColor=default;" parent="vJWkl1YuLdmYbuqkYf-Q-81" vertex="1">
          <mxGeometry y="30" width="184.99999999999983" height="40" as="geometry" />
        </mxCell>
        <mxCell id="vJWkl1YuLdmYbuqkYf-Q-83" value="" style="shape=tableRow;horizontal=0;startSize=0;swimlaneHead=0;swimlaneBody=0;strokeColor=inherit;top=0;left=0;bottom=0;right=0;collapsible=0;dropTarget=0;fillColor=none;points=[[0,0.5],[1,0.5]];portConstraint=eastwest;fontSize=16;" parent="vJWkl1YuLdmYbuqkYf-Q-82" vertex="1">
          <mxGeometry width="184.99999999999983" height="40" as="geometry" />
        </mxCell>
        <mxCell id="vJWkl1YuLdmYbuqkYf-Q-84" value="&lt;u style=&quot;font-size: 16px;&quot;&gt;ID&lt;/u&gt;" style="shape=partialRectangle;html=1;whiteSpace=wrap;connectable=0;strokeColor=inherit;overflow=hidden;fillColor=#FFF2CC;top=0;left=0;bottom=0;right=0;pointerEvents=1;fontSize=16;" parent="vJWkl1YuLdmYbuqkYf-Q-83" vertex="1">
          <mxGeometry width="95" height="40" as="geometry">
            <mxRectangle width="95" height="40" as="alternateBounds" />
          </mxGeometry>
        </mxCell>
        <mxCell id="vJWkl1YuLdmYbuqkYf-Q-85" value="Speciality" style="shape=partialRectangle;html=1;whiteSpace=wrap;connectable=0;strokeColor=inherit;overflow=hidden;fillColor=#FFF2CC;top=0;left=0;bottom=0;right=0;pointerEvents=1;fontSize=16;" parent="vJWkl1YuLdmYbuqkYf-Q-83" vertex="1">
          <mxGeometry x="95" width="90" height="40" as="geometry">
            <mxRectangle width="90" height="40" as="alternateBounds" />
          </mxGeometry>
        </mxCell>
        <mxCell id="vJWkl1YuLdmYbuqkYf-Q-88" value="Doctor" style="text;html=1;align=left;verticalAlign=middle;resizable=0;points=[];autosize=1;strokeColor=none;fillColor=none;fontSize=16;" parent="vJWkl1YuLdmYbuqkYf-Q-81" vertex="1">
          <mxGeometry x="-0.0016666666666651508" width="70" height="30" as="geometry" />
        </mxCell>
        <mxCell id="hvt9jh8VNVlTQo4yOcrB-20" value="" style="endArrow=none;dashed=1;html=1;rounded=0;startSize=7;jumpSize=16;fontSize=16;" parent="vJWkl1YuLdmYbuqkYf-Q-81" edge="1">
          <mxGeometry width="50" height="50" relative="1" as="geometry">
            <mxPoint x="27" y="61" as="sourcePoint" />
            <mxPoint x="67" y="61" as="targetPoint" />
          </mxGeometry>
        </mxCell>
        <mxCell id="hvt9jh8VNVlTQo4yOcrB-21" value="" style="endArrow=none;dashed=1;html=1;rounded=0;startSize=7;jumpSize=16;fontSize=16;" parent="vJWkl1YuLdmYbuqkYf-Q-81" edge="1">
          <mxGeometry width="50" height="50" relative="1" as="geometry">
            <mxPoint x="27" y="142" as="sourcePoint" />
            <mxPoint x="67" y="142" as="targetPoint" />
          </mxGeometry>
        </mxCell>
        <mxCell id="hvt9jh8VNVlTQo4yOcrB-22" value="" style="endArrow=none;dashed=1;html=1;rounded=0;startSize=7;jumpSize=16;fontSize=16;" parent="vJWkl1YuLdmYbuqkYf-Q-81" edge="1">
          <mxGeometry width="50" height="50" relative="1" as="geometry">
            <mxPoint x="26" y="223" as="sourcePoint" />
            <mxPoint x="66" y="223" as="targetPoint" />
          </mxGeometry>
        </mxCell>
        <mxCell id="hvt9jh8VNVlTQo4yOcrB-23" value="" style="endArrow=none;dashed=1;html=1;rounded=0;startSize=7;jumpSize=16;fontSize=16;" parent="vJWkl1YuLdmYbuqkYf-Q-81" edge="1">
          <mxGeometry width="50" height="50" relative="1" as="geometry">
            <mxPoint x="37" y="383" as="sourcePoint" />
            <mxPoint x="77" y="383" as="targetPoint" />
          </mxGeometry>
        </mxCell>
        <mxCell id="hvt9jh8VNVlTQo4yOcrB-24" value="" style="endArrow=none;dashed=1;html=1;rounded=0;startSize=7;jumpSize=16;fontSize=16;" parent="vJWkl1YuLdmYbuqkYf-Q-81" edge="1">
          <mxGeometry width="50" height="50" relative="1" as="geometry">
            <mxPoint x="35" y="463" as="sourcePoint" />
            <mxPoint x="75" y="463" as="targetPoint" />
          </mxGeometry>
        </mxCell>
        <mxCell id="hvt9jh8VNVlTQo4yOcrB-30" value="" style="endArrow=none;dashed=1;html=1;rounded=0;startSize=7;jumpSize=16;fontSize=16;" parent="vJWkl1YuLdmYbuqkYf-Q-81" edge="1">
          <mxGeometry width="50" height="50" relative="1" as="geometry">
            <mxPoint x="27" y="223" as="sourcePoint" />
            <mxPoint x="67" y="223" as="targetPoint" />
          </mxGeometry>
        </mxCell>
        <mxCell id="Zjd1liX5utcjjJwKV0hH-1" value="" style="group;fontSize=16;" parent="1" vertex="1" connectable="0">
          <mxGeometry x="40" y="650" width="350" height="70" as="geometry" />
        </mxCell>
        <mxCell id="Zjd1liX5utcjjJwKV0hH-2" value="" style="shape=table;startSize=0;container=1;collapsible=0;childLayout=tableLayout;fontSize=16;" parent="Zjd1liX5utcjjJwKV0hH-1" vertex="1">
          <mxGeometry y="31" width="949" height="40" as="geometry" />
        </mxCell>
        <mxCell id="Zjd1liX5utcjjJwKV0hH-3" value="" style="shape=tableRow;horizontal=0;startSize=0;swimlaneHead=0;swimlaneBody=0;strokeColor=inherit;top=0;left=0;bottom=0;right=0;collapsible=0;dropTarget=0;fillColor=none;points=[[0,0.5],[1,0.5]];portConstraint=eastwest;fontSize=16;" parent="Zjd1liX5utcjjJwKV0hH-2" vertex="1">
          <mxGeometry width="949" height="40" as="geometry" />
        </mxCell>
        <mxCell id="Zjd1liX5utcjjJwKV0hH-4" value="&lt;u style=&quot;font-size: 16px;&quot;&gt;ID&lt;/u&gt;" style="shape=partialRectangle;html=1;whiteSpace=wrap;connectable=0;strokeColor=default;overflow=hidden;fillColor=#FFF2CC;top=0;left=0;bottom=0;right=0;pointerEvents=1;fontSize=16;" parent="Zjd1liX5utcjjJwKV0hH-3" vertex="1">
          <mxGeometry width="89" height="40" as="geometry">
            <mxRectangle width="89" height="40" as="alternateBounds" />
          </mxGeometry>
        </mxCell>
        <mxCell id="Zjd1liX5utcjjJwKV0hH-5" value="PType" style="shape=partialRectangle;html=1;whiteSpace=wrap;connectable=0;strokeColor=default;overflow=hidden;fillColor=#FFF2CC;top=0;left=0;bottom=0;right=0;pointerEvents=1;fontSize=16;" parent="Zjd1liX5utcjjJwKV0hH-3" vertex="1">
          <mxGeometry x="89" width="86" height="40" as="geometry">
            <mxRectangle width="86" height="40" as="alternateBounds" />
          </mxGeometry>
        </mxCell>
        <mxCell id="z46Pf0Tg11XiV23-vNkJ-22" value="Fname" style="shape=partialRectangle;html=1;whiteSpace=wrap;connectable=0;strokeColor=default;overflow=hidden;fillColor=#FFF2CC;top=0;left=0;bottom=0;right=0;pointerEvents=1;fontSize=16;" parent="Zjd1liX5utcjjJwKV0hH-3" vertex="1">
          <mxGeometry x="175" width="86" height="40" as="geometry">
            <mxRectangle width="86" height="40" as="alternateBounds" />
          </mxGeometry>
        </mxCell>
        <mxCell id="z46Pf0Tg11XiV23-vNkJ-23" value="Lname" style="shape=partialRectangle;html=1;whiteSpace=wrap;connectable=0;strokeColor=default;overflow=hidden;fillColor=#FFF2CC;top=0;left=0;bottom=0;right=0;pointerEvents=1;fontSize=16;" parent="Zjd1liX5utcjjJwKV0hH-3" vertex="1">
          <mxGeometry x="261" width="86" height="40" as="geometry">
            <mxRectangle width="86" height="40" as="alternateBounds" />
          </mxGeometry>
        </mxCell>
        <mxCell id="z46Pf0Tg11XiV23-vNkJ-27" value="DOB" style="shape=partialRectangle;html=1;whiteSpace=wrap;connectable=0;strokeColor=default;overflow=hidden;fillColor=#FFF2CC;top=0;left=0;bottom=0;right=0;pointerEvents=1;fontSize=16;" parent="Zjd1liX5utcjjJwKV0hH-3" vertex="1">
          <mxGeometry x="347" width="86" height="40" as="geometry">
            <mxRectangle width="86" height="40" as="alternateBounds" />
          </mxGeometry>
        </mxCell>
        <mxCell id="z46Pf0Tg11XiV23-vNkJ-26" value="Phone" style="shape=partialRectangle;html=1;whiteSpace=wrap;connectable=0;strokeColor=default;overflow=hidden;fillColor=#FFF2CC;top=0;left=0;bottom=0;right=0;pointerEvents=1;fontSize=16;" parent="Zjd1liX5utcjjJwKV0hH-3" vertex="1">
          <mxGeometry x="433" width="86" height="40" as="geometry">
            <mxRectangle width="86" height="40" as="alternateBounds" />
          </mxGeometry>
        </mxCell>
        <mxCell id="z46Pf0Tg11XiV23-vNkJ-25" value="Gender" style="shape=partialRectangle;html=1;whiteSpace=wrap;connectable=0;strokeColor=default;overflow=hidden;fillColor=#FFF2CC;top=0;left=0;bottom=0;right=0;pointerEvents=1;fontSize=16;" parent="Zjd1liX5utcjjJwKV0hH-3" vertex="1">
          <mxGeometry x="519" width="86" height="40" as="geometry">
            <mxRectangle width="86" height="40" as="alternateBounds" />
          </mxGeometry>
        </mxCell>
        <mxCell id="z46Pf0Tg11XiV23-vNkJ-31" value="Street" style="shape=partialRectangle;html=1;whiteSpace=wrap;connectable=0;strokeColor=default;overflow=hidden;fillColor=#FFF2CC;top=0;left=0;bottom=0;right=0;pointerEvents=1;fontSize=16;" parent="Zjd1liX5utcjjJwKV0hH-3" vertex="1">
          <mxGeometry x="605" width="86" height="40" as="geometry">
            <mxRectangle width="86" height="40" as="alternateBounds" />
          </mxGeometry>
        </mxCell>
        <mxCell id="z46Pf0Tg11XiV23-vNkJ-24" value="City" style="shape=partialRectangle;html=1;whiteSpace=wrap;connectable=0;strokeColor=default;overflow=hidden;fillColor=#FFF2CC;top=0;left=0;bottom=0;right=0;pointerEvents=1;fontSize=16;" parent="Zjd1liX5utcjjJwKV0hH-3" vertex="1">
          <mxGeometry x="691" width="86" height="40" as="geometry">
            <mxRectangle width="86" height="40" as="alternateBounds" />
          </mxGeometry>
        </mxCell>
        <mxCell id="z46Pf0Tg11XiV23-vNkJ-30" value="State" style="shape=partialRectangle;html=1;whiteSpace=wrap;connectable=0;strokeColor=default;overflow=hidden;fillColor=#FFF2CC;top=0;left=0;bottom=0;right=0;pointerEvents=1;fontSize=16;" parent="Zjd1liX5utcjjJwKV0hH-3" vertex="1">
          <mxGeometry x="777" width="86" height="40" as="geometry">
            <mxRectangle width="86" height="40" as="alternateBounds" />
          </mxGeometry>
        </mxCell>
        <mxCell id="-8c4adJR8eqZ8qMmH8AK-3" value="DId" style="shape=partialRectangle;html=1;whiteSpace=wrap;connectable=0;strokeColor=default;overflow=hidden;fillColor=#FFF2CC;top=0;left=0;bottom=0;right=0;pointerEvents=1;fontSize=16;" parent="Zjd1liX5utcjjJwKV0hH-3" vertex="1">
          <mxGeometry x="863" width="86" height="40" as="geometry">
            <mxRectangle width="86" height="40" as="alternateBounds" />
          </mxGeometry>
        </mxCell>
        <mxCell id="Zjd1liX5utcjjJwKV0hH-6" value="Patient" style="text;html=1;align=left;verticalAlign=middle;resizable=0;points=[];autosize=1;strokeColor=none;fillColor=none;fontSize=16;" parent="Zjd1liX5utcjjJwKV0hH-1" vertex="1">
          <mxGeometry x="0.0016666666666722563" y="1" width="70" height="30" as="geometry" />
        </mxCell>
        <mxCell id="-8c4adJR8eqZ8qMmH8AK-6" value="" style="endArrow=none;dashed=1;html=1;rounded=0;startSize=7;jumpSize=16;fontSize=16;" parent="Zjd1liX5utcjjJwKV0hH-1" edge="1">
          <mxGeometry width="50" height="50" relative="1" as="geometry">
            <mxPoint x="886" y="60" as="sourcePoint" />
            <mxPoint x="926" y="60" as="targetPoint" />
          </mxGeometry>
        </mxCell>
        <mxCell id="8Dsh6u7uaTlUUuzgEMx3-12" style="edgeStyle=orthogonalEdgeStyle;rounded=0;orthogonalLoop=1;jettySize=auto;html=1;exitX=0.962;exitY=1.073;exitDx=0;exitDy=0;exitPerimeter=0;fontSize=16;strokeColor=#CCAE52;" parent="1" edge="1" source="vJWkl1YuLdmYbuqkYf-Q-23">
          <mxGeometry relative="1" as="geometry">
            <mxPoint x="1000.9999999999998" y="320" as="sourcePoint" />
            <mxPoint x="80" y="396" as="targetPoint" />
            <Array as="points">
              <mxPoint x="1089" y="410" />
              <mxPoint x="80" y="410" />
            </Array>
          </mxGeometry>
        </mxCell>
        <mxCell id="8Dsh6u7uaTlUUuzgEMx3-15" value="" style="endArrow=none;dashed=1;html=1;rounded=0;startSize=7;jumpSize=16;fontSize=16;" parent="1" edge="1">
          <mxGeometry width="50" height="50" relative="1" as="geometry">
            <mxPoint x="1061" y="310" as="sourcePoint" />
            <mxPoint x="1111" y="310" as="targetPoint" />
          </mxGeometry>
        </mxCell>
        <mxCell id="z46Pf0Tg11XiV23-vNkJ-8" style="edgeStyle=orthogonalEdgeStyle;rounded=0;orthogonalLoop=1;jettySize=auto;html=1;exitX=0.004;exitY=0.314;exitDx=0;exitDy=0;entryX=0;entryY=0.5;entryDx=0;entryDy=0;exitPerimeter=0;fontSize=16;strokeColor=#009900;" parent="1" source="z46Pf0Tg11XiV23-vNkJ-42" target="Zjd1liX5utcjjJwKV0hH-3" edge="1">
          <mxGeometry relative="1" as="geometry">
            <mxPoint x="40" y="854" as="sourcePoint" />
            <mxPoint x="54.23500000000013" y="720.76" as="targetPoint" />
            <Array as="points">
              <mxPoint x="40" y="855" />
              <mxPoint x="-150" y="855" />
              <mxPoint x="-150" y="700" />
              <mxPoint x="-10" y="700" />
              <mxPoint x="-10" y="701" />
            </Array>
          </mxGeometry>
        </mxCell>
        <mxCell id="z46Pf0Tg11XiV23-vNkJ-46" style="edgeStyle=orthogonalEdgeStyle;rounded=0;orthogonalLoop=1;jettySize=auto;html=1;exitX=0.001;exitY=0.694;exitDx=0;exitDy=0;entryX=0;entryY=0.5;entryDx=0;entryDy=0;fontSize=16;strokeColor=#009900;exitPerimeter=0;" parent="1" source="Zjd1liX5utcjjJwKV0hH-9" target="Zjd1liX5utcjjJwKV0hH-3" edge="1">
          <mxGeometry relative="1" as="geometry">
            <mxPoint x="40" y="765" as="sourcePoint" />
            <mxPoint x="69.41899999999987" y="719.8799999999999" as="targetPoint" />
            <Array as="points">
              <mxPoint x="-150" y="789" />
              <mxPoint x="-150" y="701" />
            </Array>
          </mxGeometry>
        </mxCell>
        <mxCell id="z46Pf0Tg11XiV23-vNkJ-47" value="" style="group;fontSize=16;" parent="1" vertex="1" connectable="0">
          <mxGeometry x="40" y="890" width="350" height="70" as="geometry" />
        </mxCell>
        <mxCell id="z46Pf0Tg11XiV23-vNkJ-48" value="" style="shape=table;startSize=0;container=1;collapsible=0;childLayout=tableLayout;fontSize=16;" parent="z46Pf0Tg11XiV23-vNkJ-47" vertex="1">
          <mxGeometry y="31" width="672" height="40" as="geometry" />
        </mxCell>
        <mxCell id="z46Pf0Tg11XiV23-vNkJ-49" value="" style="shape=tableRow;horizontal=0;startSize=0;swimlaneHead=0;swimlaneBody=0;strokeColor=inherit;top=0;left=0;bottom=0;right=0;collapsible=0;dropTarget=0;fillColor=none;points=[[0,0.5],[1,0.5]];portConstraint=eastwest;fontSize=16;" parent="z46Pf0Tg11XiV23-vNkJ-48" vertex="1">
          <mxGeometry width="672" height="40" as="geometry" />
        </mxCell>
        <mxCell id="z46Pf0Tg11XiV23-vNkJ-50" value="&lt;u style=&quot;font-size: 16px;&quot;&gt;ID&lt;/u&gt;" style="shape=partialRectangle;html=1;whiteSpace=wrap;connectable=0;strokeColor=inherit;overflow=hidden;fillColor=#FFF2CC;top=0;left=0;bottom=0;right=0;pointerEvents=1;fontSize=16;" parent="z46Pf0Tg11XiV23-vNkJ-49" vertex="1">
          <mxGeometry width="112" height="40" as="geometry">
            <mxRectangle width="112" height="40" as="alternateBounds" />
          </mxGeometry>
        </mxCell>
        <mxCell id="z46Pf0Tg11XiV23-vNkJ-53" value="Date" style="shape=partialRectangle;html=1;whiteSpace=wrap;connectable=0;strokeColor=inherit;overflow=hidden;fillColor=#FFF2CC;top=0;left=0;bottom=0;right=0;pointerEvents=1;fontSize=16;" parent="z46Pf0Tg11XiV23-vNkJ-49" vertex="1">
          <mxGeometry x="112" width="112" height="40" as="geometry">
            <mxRectangle width="112" height="40" as="alternateBounds" />
          </mxGeometry>
        </mxCell>
        <mxCell id="z46Pf0Tg11XiV23-vNkJ-54" value="Note" style="shape=partialRectangle;html=1;whiteSpace=wrap;connectable=0;strokeColor=inherit;overflow=hidden;fillColor=#FFF2CC;top=0;left=0;bottom=0;right=0;pointerEvents=1;fontSize=16;" parent="z46Pf0Tg11XiV23-vNkJ-49" vertex="1">
          <mxGeometry x="224" width="112" height="40" as="geometry">
            <mxRectangle width="112" height="40" as="alternateBounds" />
          </mxGeometry>
        </mxCell>
        <mxCell id="z46Pf0Tg11XiV23-vNkJ-119" value="DID" style="shape=partialRectangle;html=1;whiteSpace=wrap;connectable=0;strokeColor=#000000;overflow=hidden;fillColor=#FFF2CC;top=0;left=0;bottom=0;right=0;pointerEvents=1;fontSize=16;" parent="z46Pf0Tg11XiV23-vNkJ-49" vertex="1">
          <mxGeometry x="336" width="112" height="40" as="geometry">
            <mxRectangle width="112" height="40" as="alternateBounds" />
          </mxGeometry>
        </mxCell>
        <mxCell id="z46Pf0Tg11XiV23-vNkJ-120" value="PID" style="shape=partialRectangle;html=1;whiteSpace=wrap;connectable=0;strokeColor=#000000;overflow=hidden;fillColor=#FFF2CC;top=0;left=0;bottom=0;right=0;pointerEvents=1;fontSize=16;" parent="z46Pf0Tg11XiV23-vNkJ-49" vertex="1">
          <mxGeometry x="448" width="112" height="40" as="geometry">
            <mxRectangle width="112" height="40" as="alternateBounds" />
          </mxGeometry>
        </mxCell>
        <mxCell id="z46Pf0Tg11XiV23-vNkJ-121" value="RID" style="shape=partialRectangle;html=1;whiteSpace=wrap;connectable=0;strokeColor=#000000;overflow=hidden;fillColor=#FFF2CC;top=0;left=0;bottom=0;right=0;pointerEvents=1;fontSize=16;" parent="z46Pf0Tg11XiV23-vNkJ-49" vertex="1">
          <mxGeometry x="560" width="112" height="40" as="geometry">
            <mxRectangle width="112" height="40" as="alternateBounds" />
          </mxGeometry>
        </mxCell>
        <mxCell id="z46Pf0Tg11XiV23-vNkJ-51" value="Appointment" style="text;html=1;align=left;verticalAlign=middle;resizable=0;points=[];autosize=1;strokeColor=none;fillColor=none;fontSize=16;" parent="z46Pf0Tg11XiV23-vNkJ-47" vertex="1">
          <mxGeometry x="0.0016666666666722563" y="1" width="110" height="30" as="geometry" />
        </mxCell>
        <mxCell id="hvt9jh8VNVlTQo4yOcrB-27" value="" style="endArrow=none;dashed=1;html=1;rounded=0;startSize=7;jumpSize=16;fontSize=16;" parent="z46Pf0Tg11XiV23-vNkJ-47" edge="1">
          <mxGeometry width="50" height="50" relative="1" as="geometry">
            <mxPoint x="372" y="60" as="sourcePoint" />
            <mxPoint x="412" y="60" as="targetPoint" />
          </mxGeometry>
        </mxCell>
        <mxCell id="hvt9jh8VNVlTQo4yOcrB-28" value="" style="endArrow=none;dashed=1;html=1;rounded=0;startSize=7;jumpSize=16;fontSize=16;" parent="z46Pf0Tg11XiV23-vNkJ-47" edge="1">
          <mxGeometry width="50" height="50" relative="1" as="geometry">
            <mxPoint x="484" y="60" as="sourcePoint" />
            <mxPoint x="524" y="60" as="targetPoint" />
          </mxGeometry>
        </mxCell>
        <mxCell id="hvt9jh8VNVlTQo4yOcrB-29" value="" style="endArrow=none;dashed=1;html=1;rounded=0;startSize=7;jumpSize=16;fontSize=16;" parent="z46Pf0Tg11XiV23-vNkJ-47" edge="1">
          <mxGeometry width="50" height="50" relative="1" as="geometry">
            <mxPoint x="596" y="60" as="sourcePoint" />
            <mxPoint x="636" y="60" as="targetPoint" />
          </mxGeometry>
        </mxCell>
        <mxCell id="hvt9jh8VNVlTQo4yOcrB-32" value="" style="endArrow=none;dashed=1;html=1;rounded=0;startSize=7;jumpSize=16;fontSize=16;" parent="z46Pf0Tg11XiV23-vNkJ-47" edge="1">
          <mxGeometry width="50" height="50" relative="1" as="geometry">
            <mxPoint x="262" y="141" as="sourcePoint" />
            <mxPoint x="302" y="141" as="targetPoint" />
          </mxGeometry>
        </mxCell>
        <mxCell id="hvt9jh8VNVlTQo4yOcrB-33" value="" style="endArrow=none;dashed=1;html=1;rounded=0;startSize=7;jumpSize=16;fontSize=16;" parent="z46Pf0Tg11XiV23-vNkJ-47" edge="1">
          <mxGeometry width="50" height="50" relative="1" as="geometry">
            <mxPoint x="484" y="222" as="sourcePoint" />
            <mxPoint x="524" y="222" as="targetPoint" />
          </mxGeometry>
        </mxCell>
        <mxCell id="hvt9jh8VNVlTQo4yOcrB-35" value="" style="endArrow=none;dashed=1;html=1;rounded=0;startSize=7;jumpSize=16;fontSize=16;" parent="z46Pf0Tg11XiV23-vNkJ-47" edge="1">
          <mxGeometry width="50" height="50" relative="1" as="geometry">
            <mxPoint x="486" y="302" as="sourcePoint" />
            <mxPoint x="526" y="302" as="targetPoint" />
          </mxGeometry>
        </mxCell>
        <mxCell id="hvt9jh8VNVlTQo4yOcrB-36" value="" style="endArrow=none;dashed=1;html=1;rounded=0;startSize=7;jumpSize=16;fontSize=16;" parent="z46Pf0Tg11XiV23-vNkJ-47" edge="1">
          <mxGeometry width="50" height="50" relative="1" as="geometry">
            <mxPoint x="374" y="302" as="sourcePoint" />
            <mxPoint x="414" y="302" as="targetPoint" />
          </mxGeometry>
        </mxCell>
        <mxCell id="hvt9jh8VNVlTQo4yOcrB-37" value="" style="endArrow=none;dashed=1;html=1;rounded=0;startSize=7;jumpSize=16;fontSize=16;" parent="z46Pf0Tg11XiV23-vNkJ-47" edge="1">
          <mxGeometry width="50" height="50" relative="1" as="geometry">
            <mxPoint x="395" y="381" as="sourcePoint" />
            <mxPoint x="435" y="381" as="targetPoint" />
          </mxGeometry>
        </mxCell>
        <mxCell id="KHFLxESirtTAukJCEAW1-46" style="edgeStyle=orthogonalEdgeStyle;rounded=0;orthogonalLoop=1;jettySize=auto;html=1;entryX=0.139;entryY=1.088;entryDx=0;entryDy=0;exitX=0.834;exitY=0.989;exitDx=0;exitDy=0;exitPerimeter=0;entryPerimeter=0;fontSize=16;strokeColor=default;" parent="1" source="Zjd1liX5utcjjJwKV0hH-8" target="KHFLxESirtTAukJCEAW1-2" edge="1">
          <mxGeometry relative="1" as="geometry">
            <mxPoint x="790" y="980" as="targetPoint" />
            <Array as="points">
              <mxPoint x="227" y="820" />
              <mxPoint x="800" y="820" />
              <mxPoint x="800" y="1300" />
              <mxPoint x="106" y="1300" />
            </Array>
          </mxGeometry>
        </mxCell>
        <mxCell id="KHFLxESirtTAukJCEAW1-47" style="edgeStyle=orthogonalEdgeStyle;rounded=0;orthogonalLoop=1;jettySize=auto;html=1;entryX=0;entryY=0.5;entryDx=0;entryDy=0;exitX=0.59;exitY=0.98;exitDx=0;exitDy=0;exitPerimeter=0;fontSize=16;strokeColor=#8A6E50;" parent="1" source="z46Pf0Tg11XiV23-vNkJ-49" target="vJWkl1YuLdmYbuqkYf-Q-83" edge="1">
          <mxGeometry relative="1" as="geometry">
            <Array as="points">
              <mxPoint x="437" y="970" />
              <mxPoint x="-50" y="970" />
              <mxPoint x="-50" y="460" />
            </Array>
          </mxGeometry>
        </mxCell>
        <mxCell id="KHFLxESirtTAukJCEAW1-48" style="edgeStyle=orthogonalEdgeStyle;rounded=0;orthogonalLoop=1;jettySize=auto;html=1;entryX=0;entryY=0.5;entryDx=0;entryDy=0;exitX=0.75;exitY=1;exitDx=0;exitDy=0;fontSize=16;strokeColor=#009900;" parent="1" source="z46Pf0Tg11XiV23-vNkJ-48" target="Zjd1liX5utcjjJwKV0hH-3" edge="1">
          <mxGeometry relative="1" as="geometry">
            <Array as="points">
              <mxPoint x="544" y="980" />
              <mxPoint x="-150" y="980" />
              <mxPoint x="-150" y="701" />
            </Array>
          </mxGeometry>
        </mxCell>
        <mxCell id="KHFLxESirtTAukJCEAW1-49" style="edgeStyle=orthogonalEdgeStyle;rounded=0;orthogonalLoop=1;jettySize=auto;html=1;exitX=0.916;exitY=1.008;exitDx=0;exitDy=0;exitPerimeter=0;entryX=1;entryY=0.5;entryDx=0;entryDy=0;fontSize=16;strokeColor=#CCAE52;" parent="1" source="z46Pf0Tg11XiV23-vNkJ-49" target="Zjd1liX5utcjjJwKV0hH-15" edge="1">
          <mxGeometry relative="1" as="geometry">
            <mxPoint x="84" y="720" as="targetPoint" />
            <Array as="points">
              <mxPoint x="656" y="980" />
              <mxPoint x="1050" y="980" />
              <mxPoint x="1050" y="621" />
            </Array>
          </mxGeometry>
        </mxCell>
        <mxCell id="KHFLxESirtTAukJCEAW1-52" style="edgeStyle=orthogonalEdgeStyle;rounded=0;orthogonalLoop=1;jettySize=auto;html=1;entryX=0;entryY=0.5;entryDx=0;entryDy=0;fontSize=16;strokeColor=#009900;exitX=0.826;exitY=1.022;exitDx=0;exitDy=0;exitPerimeter=0;" parent="1" source="z46Pf0Tg11XiV23-vNkJ-64" target="Zjd1liX5utcjjJwKV0hH-3" edge="1">
          <mxGeometry relative="1" as="geometry">
            <mxPoint x="436" y="1044" as="sourcePoint" />
            <mxPoint x="113" y="720" as="targetPoint" />
            <Array as="points">
              <mxPoint x="320" y="1042" />
              <mxPoint x="320" y="1060" />
              <mxPoint x="-150" y="1060" />
              <mxPoint x="-150" y="701" />
            </Array>
          </mxGeometry>
        </mxCell>
        <mxCell id="KHFLxESirtTAukJCEAW1-53" style="edgeStyle=orthogonalEdgeStyle;rounded=0;orthogonalLoop=1;jettySize=auto;html=1;entryX=0;entryY=0.5;entryDx=0;entryDy=0;fontSize=16;strokeColor=#009900;" parent="1" target="Zjd1liX5utcjjJwKV0hH-3" edge="1">
          <mxGeometry relative="1" as="geometry">
            <Array as="points">
              <mxPoint x="544" y="1140" />
              <mxPoint x="-150" y="1140" />
              <mxPoint x="-150" y="701" />
            </Array>
            <mxPoint x="544" y="1121" as="sourcePoint" />
          </mxGeometry>
        </mxCell>
        <mxCell id="KHFLxESirtTAukJCEAW1-55" style="edgeStyle=orthogonalEdgeStyle;rounded=0;orthogonalLoop=1;jettySize=auto;html=1;exitX=0.703;exitY=1.026;exitDx=0;exitDy=0;exitPerimeter=0;fontSize=16;strokeColor=#009900;" parent="1" source="KHFLxESirtTAukJCEAW1-19" edge="1">
          <mxGeometry relative="1" as="geometry">
            <mxPoint x="40" y="700" as="targetPoint" />
            <Array as="points">
              <mxPoint x="434" y="1208" />
              <mxPoint x="-150" y="1208" />
              <mxPoint x="-150" y="700" />
            </Array>
          </mxGeometry>
        </mxCell>
        <mxCell id="hvt9jh8VNVlTQo4yOcrB-1" style="edgeStyle=orthogonalEdgeStyle;rounded=0;orthogonalLoop=1;jettySize=auto;html=1;entryX=1;entryY=0.5;entryDx=0;entryDy=0;exitX=0.901;exitY=0.974;exitDx=0;exitDy=0;exitPerimeter=0;fontSize=16;strokeColor=#CCAE52;" parent="1" source="KHFLxESirtTAukJCEAW1-18" target="Zjd1liX5utcjjJwKV0hH-15" edge="1">
          <mxGeometry relative="1" as="geometry">
            <Array as="points">
              <mxPoint x="545" y="1220" />
              <mxPoint x="1050" y="1220" />
              <mxPoint x="1050" y="621" />
            </Array>
          </mxGeometry>
        </mxCell>
        <mxCell id="hvt9jh8VNVlTQo4yOcrB-2" style="edgeStyle=orthogonalEdgeStyle;rounded=0;orthogonalLoop=1;jettySize=auto;html=1;entryX=0;entryY=0.5;entryDx=0;entryDy=0;strokeColor=#67AB9F;exitX=0.552;exitY=0.972;exitDx=0;exitDy=0;exitPerimeter=0;" parent="1" source="vJWkl1YuLdmYbuqkYf-Q-61" target="vJWkl1YuLdmYbuqkYf-Q-22" edge="1">
          <mxGeometry relative="1" as="geometry">
            <Array as="points">
              <mxPoint x="89" y="570" />
              <mxPoint x="-90" y="570" />
              <mxPoint x="-90" y="299" />
              <mxPoint x="40" y="299" />
            </Array>
          </mxGeometry>
        </mxCell>
        <mxCell id="hvt9jh8VNVlTQo4yOcrB-3" style="edgeStyle=orthogonalEdgeStyle;rounded=0;orthogonalLoop=1;jettySize=auto;html=1;entryX=0;entryY=0.5;entryDx=0;entryDy=0;strokeColor=#67AB9F;exitX=0.495;exitY=0.948;exitDx=0;exitDy=0;exitPerimeter=0;" parent="1" source="Zjd1liX5utcjjJwKV0hH-15" target="vJWkl1YuLdmYbuqkYf-Q-23" edge="1">
          <mxGeometry relative="1" as="geometry">
            <Array as="points">
              <mxPoint x="84" y="650" />
              <mxPoint x="-90" y="650" />
              <mxPoint x="-90" y="299" />
              <mxPoint x="40" y="299" />
            </Array>
          </mxGeometry>
        </mxCell>
        <mxCell id="hvt9jh8VNVlTQo4yOcrB-6" style="edgeStyle=orthogonalEdgeStyle;rounded=0;orthogonalLoop=1;jettySize=auto;html=1;entryX=0;entryY=0.5;entryDx=0;entryDy=0;exitX=0.25;exitY=1;exitDx=0;exitDy=0;strokeColor=#8A6E50;" parent="1" source="KHFLxESirtTAukJCEAW1-10" target="vJWkl1YuLdmYbuqkYf-Q-82" edge="1">
          <mxGeometry relative="1" as="geometry">
            <Array as="points">
              <mxPoint x="96" y="1450" />
              <mxPoint x="-50" y="1450" />
              <mxPoint x="-50" y="460" />
            </Array>
          </mxGeometry>
        </mxCell>
        <mxCell id="hvt9jh8VNVlTQo4yOcrB-9" style="edgeStyle=orthogonalEdgeStyle;rounded=0;orthogonalLoop=1;jettySize=auto;html=1;entryX=1;entryY=0.5;entryDx=0;entryDy=0;strokeColor=#00DE00;" parent="1" source="KHFLxESirtTAukJCEAW1-3" target="vJWkl1YuLdmYbuqkYf-Q-60" edge="1">
          <mxGeometry relative="1" as="geometry">
            <Array as="points">
              <mxPoint x="1130" y="1261" />
              <mxPoint x="1130" y="540" />
            </Array>
          </mxGeometry>
        </mxCell>
        <mxCell id="hvt9jh8VNVlTQo4yOcrB-10" style="edgeStyle=orthogonalEdgeStyle;rounded=0;orthogonalLoop=1;jettySize=auto;html=1;entryX=1;entryY=0.5;entryDx=0;entryDy=0;strokeColor=#00DE00;exitX=0.9;exitY=1;exitDx=0;exitDy=0;exitPerimeter=0;" parent="1" source="hvt9jh8VNVlTQo4yOcrB-44" target="vJWkl1YuLdmYbuqkYf-Q-60" edge="1">
          <mxGeometry relative="1" as="geometry">
            <mxPoint x="544" y="1605.8000000000002" as="sourcePoint" />
            <Array as="points">
              <mxPoint x="544" y="1560" />
              <mxPoint x="1130" y="1560" />
              <mxPoint x="1130" y="540" />
            </Array>
          </mxGeometry>
        </mxCell>
        <mxCell id="hvt9jh8VNVlTQo4yOcrB-15" style="edgeStyle=orthogonalEdgeStyle;rounded=0;orthogonalLoop=1;jettySize=auto;html=1;entryX=0;entryY=0.5;entryDx=0;entryDy=0;" parent="1" target="z46Pf0Tg11XiV23-vNkJ-71" edge="1">
          <mxGeometry relative="1" as="geometry">
            <mxPoint x="320" y="1520" as="sourcePoint" />
            <mxPoint x="40" y="1335" as="targetPoint" />
            <Array as="points">
              <mxPoint x="320" y="1530" />
              <mxPoint x="10" y="1530" />
              <mxPoint x="10" y="1338" />
            </Array>
          </mxGeometry>
        </mxCell>
        <mxCell id="hvt9jh8VNVlTQo4yOcrB-16" style="edgeStyle=orthogonalEdgeStyle;rounded=0;orthogonalLoop=1;jettySize=auto;html=1;strokeColor=#FF8000;" parent="1" edge="1">
          <mxGeometry relative="1" as="geometry">
            <mxPoint x="410" y="1520" as="sourcePoint" />
            <mxPoint x="40" y="771" as="targetPoint" />
            <Array as="points">
              <mxPoint x="410" y="1537" />
              <mxPoint x="-200" y="1537" />
              <mxPoint x="-200" y="771" />
            </Array>
          </mxGeometry>
        </mxCell>
        <mxCell id="E3O-NrDWwWckx0SZ5vsn-1" style="edgeStyle=orthogonalEdgeStyle;rounded=0;orthogonalLoop=1;jettySize=auto;html=1;entryX=0;entryY=0.5;entryDx=0;entryDy=0;exitX=0.236;exitY=1.009;exitDx=0;exitDy=0;exitPerimeter=0;strokeColor=#67AB9F;" parent="1" source="vJWkl1YuLdmYbuqkYf-Q-83" target="vJWkl1YuLdmYbuqkYf-Q-22" edge="1">
          <mxGeometry relative="1" as="geometry">
            <Array as="points">
              <mxPoint x="85" y="480" />
              <mxPoint x="85" y="490" />
              <mxPoint x="-90" y="490" />
              <mxPoint x="-90" y="299" />
              <mxPoint x="40" y="299" />
            </Array>
          </mxGeometry>
        </mxCell>
        <mxCell id="-8c4adJR8eqZ8qMmH8AK-4" style="edgeStyle=orthogonalEdgeStyle;rounded=0;orthogonalLoop=1;jettySize=auto;html=1;strokeColor=#FF8000;exitX=0.475;exitY=1.004;exitDx=0;exitDy=0;exitPerimeter=0;" parent="1" source="KHFLxESirtTAukJCEAW1-11" edge="1">
          <mxGeometry relative="1" as="geometry">
            <mxPoint x="208" y="1435" as="sourcePoint" />
            <mxPoint x="40" y="770" as="targetPoint" />
            <Array as="points">
              <mxPoint x="200" y="1457" />
              <mxPoint x="-200" y="1457" />
              <mxPoint x="-200" y="770" />
            </Array>
          </mxGeometry>
        </mxCell>
        <mxCell id="-8c4adJR8eqZ8qMmH8AK-5" style="edgeStyle=orthogonalEdgeStyle;rounded=0;orthogonalLoop=1;jettySize=auto;html=1;entryX=0;entryY=0.5;entryDx=0;entryDy=0;exitX=0.957;exitY=1.062;exitDx=0;exitDy=0;exitPerimeter=0;fontSize=16;strokeColor=#8A6E50;" parent="1" source="Zjd1liX5utcjjJwKV0hH-2" target="vJWkl1YuLdmYbuqkYf-Q-82" edge="1">
          <mxGeometry relative="1" as="geometry">
            <Array as="points">
              <mxPoint x="948" y="730" />
              <mxPoint x="-50" y="730" />
              <mxPoint x="-50" y="460" />
            </Array>
            <mxPoint x="446" y="970" as="sourcePoint" />
            <mxPoint x="50" y="470" as="targetPoint" />
          </mxGeometry>
        </mxCell>
        <mxCell id="-8c4adJR8eqZ8qMmH8AK-32" value="" style="group;fontSize=16;" parent="1" vertex="1" connectable="0">
          <mxGeometry x="40" y="1538" width="350" height="70" as="geometry" />
        </mxCell>
        <mxCell id="-8c4adJR8eqZ8qMmH8AK-33" value="" style="shape=table;startSize=0;container=1;collapsible=0;childLayout=tableLayout;fontSize=16;" parent="-8c4adJR8eqZ8qMmH8AK-32" vertex="1">
          <mxGeometry y="31" width="336" height="40" as="geometry" />
        </mxCell>
        <mxCell id="-8c4adJR8eqZ8qMmH8AK-34" value="" style="shape=tableRow;horizontal=0;startSize=0;swimlaneHead=0;swimlaneBody=0;strokeColor=inherit;top=0;left=0;bottom=0;right=0;collapsible=0;dropTarget=0;fillColor=none;points=[[0,0.5],[1,0.5]];portConstraint=eastwest;fontSize=16;" parent="-8c4adJR8eqZ8qMmH8AK-33" vertex="1">
          <mxGeometry width="336" height="40" as="geometry" />
        </mxCell>
        <mxCell id="-8c4adJR8eqZ8qMmH8AK-35" value="&lt;u style=&quot;font-size: 16px;&quot;&gt;DID&lt;/u&gt;" style="shape=partialRectangle;html=1;whiteSpace=wrap;connectable=0;strokeColor=#d6b656;overflow=hidden;fillColor=#FFF2CC;top=0;left=0;bottom=0;right=0;pointerEvents=1;fontSize=16;" parent="-8c4adJR8eqZ8qMmH8AK-34" vertex="1">
          <mxGeometry width="112" height="40" as="geometry">
            <mxRectangle width="112" height="40" as="alternateBounds" />
          </mxGeometry>
        </mxCell>
        <mxCell id="-8c4adJR8eqZ8qMmH8AK-36" value="&lt;u style=&quot;font-size: 16px;&quot;&gt;PreID&lt;/u&gt;" style="shape=partialRectangle;html=1;whiteSpace=wrap;connectable=0;strokeColor=#d6b656;overflow=hidden;fillColor=#FFF2CC;top=0;left=0;bottom=0;right=0;pointerEvents=1;fontSize=16;" parent="-8c4adJR8eqZ8qMmH8AK-34" vertex="1">
          <mxGeometry x="112" width="112" height="40" as="geometry">
            <mxRectangle width="112" height="40" as="alternateBounds" />
          </mxGeometry>
        </mxCell>
        <mxCell id="-8c4adJR8eqZ8qMmH8AK-37" value="&lt;u&gt;Date&lt;/u&gt;" style="shape=partialRectangle;html=1;whiteSpace=wrap;connectable=0;strokeColor=#d6b656;overflow=hidden;fillColor=#FFF2CC;top=0;left=0;bottom=0;right=0;pointerEvents=1;fontSize=16;" parent="-8c4adJR8eqZ8qMmH8AK-34" vertex="1">
          <mxGeometry x="224" width="112" height="40" as="geometry">
            <mxRectangle width="112" height="40" as="alternateBounds" />
          </mxGeometry>
        </mxCell>
        <mxCell id="-8c4adJR8eqZ8qMmH8AK-38" value="PrescriptionDoctor" style="text;html=1;align=left;verticalAlign=middle;resizable=0;points=[];autosize=1;strokeColor=none;fillColor=none;fontSize=16;" parent="-8c4adJR8eqZ8qMmH8AK-32" vertex="1">
          <mxGeometry x="0.0016666666666722563" y="1" width="160" height="30" as="geometry" />
        </mxCell>
        <mxCell id="-8c4adJR8eqZ8qMmH8AK-39" value="" style="endArrow=none;dashed=1;html=1;rounded=0;startSize=7;jumpSize=16;fontSize=16;" parent="-8c4adJR8eqZ8qMmH8AK-32" edge="1">
          <mxGeometry width="50" height="50" relative="1" as="geometry">
            <mxPoint x="148" y="63" as="sourcePoint" />
            <mxPoint x="188" y="63" as="targetPoint" />
          </mxGeometry>
        </mxCell>
        <mxCell id="-8c4adJR8eqZ8qMmH8AK-40" value="" style="endArrow=none;dashed=1;html=1;rounded=0;startSize=7;jumpSize=16;fontSize=16;" parent="-8c4adJR8eqZ8qMmH8AK-32" edge="1">
          <mxGeometry width="50" height="50" relative="1" as="geometry">
            <mxPoint x="38" y="63" as="sourcePoint" />
            <mxPoint x="78" y="63" as="targetPoint" />
          </mxGeometry>
        </mxCell>
        <mxCell id="-8c4adJR8eqZ8qMmH8AK-53" value="" style="group;fontSize=16;" parent="1" vertex="1" connectable="0">
          <mxGeometry x="40" y="1630" width="350" height="70" as="geometry" />
        </mxCell>
        <mxCell id="-8c4adJR8eqZ8qMmH8AK-54" value="" style="shape=table;startSize=0;container=1;collapsible=0;childLayout=tableLayout;fontSize=16;" parent="-8c4adJR8eqZ8qMmH8AK-53" vertex="1">
          <mxGeometry y="31" width="336" height="40" as="geometry" />
        </mxCell>
        <mxCell id="-8c4adJR8eqZ8qMmH8AK-55" value="" style="shape=tableRow;horizontal=0;startSize=0;swimlaneHead=0;swimlaneBody=0;strokeColor=inherit;top=0;left=0;bottom=0;right=0;collapsible=0;dropTarget=0;fillColor=none;points=[[0,0.5],[1,0.5]];portConstraint=eastwest;fontSize=16;" parent="-8c4adJR8eqZ8qMmH8AK-54" vertex="1">
          <mxGeometry width="336" height="40" as="geometry" />
        </mxCell>
        <mxCell id="-8c4adJR8eqZ8qMmH8AK-56" value="&lt;u style=&quot;font-size: 16px;&quot;&gt;DID&lt;/u&gt;" style="shape=partialRectangle;html=1;whiteSpace=wrap;connectable=0;strokeColor=#d6b656;overflow=hidden;fillColor=#FFF2CC;top=0;left=0;bottom=0;right=0;pointerEvents=1;fontSize=16;" parent="-8c4adJR8eqZ8qMmH8AK-55" vertex="1">
          <mxGeometry width="112" height="40" as="geometry">
            <mxRectangle width="112" height="40" as="alternateBounds" />
          </mxGeometry>
        </mxCell>
        <mxCell id="-8c4adJR8eqZ8qMmH8AK-57" value="&lt;u style=&quot;font-size: 16px;&quot;&gt;RepID&lt;/u&gt;" style="shape=partialRectangle;html=1;whiteSpace=wrap;connectable=0;strokeColor=#d6b656;overflow=hidden;fillColor=#FFF2CC;top=0;left=0;bottom=0;right=0;pointerEvents=1;fontSize=16;" parent="-8c4adJR8eqZ8qMmH8AK-55" vertex="1">
          <mxGeometry x="112" width="112" height="40" as="geometry">
            <mxRectangle width="112" height="40" as="alternateBounds" />
          </mxGeometry>
        </mxCell>
        <mxCell id="-8c4adJR8eqZ8qMmH8AK-58" value="&lt;u&gt;Date&lt;/u&gt;" style="shape=partialRectangle;html=1;whiteSpace=wrap;connectable=0;strokeColor=#d6b656;overflow=hidden;fillColor=#FFF2CC;top=0;left=0;bottom=0;right=0;pointerEvents=1;fontSize=16;" parent="-8c4adJR8eqZ8qMmH8AK-55" vertex="1">
          <mxGeometry x="224" width="112" height="40" as="geometry">
            <mxRectangle width="112" height="40" as="alternateBounds" />
          </mxGeometry>
        </mxCell>
        <mxCell id="-8c4adJR8eqZ8qMmH8AK-59" value="ReportDoctor" style="text;html=1;align=left;verticalAlign=middle;resizable=0;points=[];autosize=1;strokeColor=none;fillColor=none;fontSize=16;" parent="-8c4adJR8eqZ8qMmH8AK-53" vertex="1">
          <mxGeometry x="0.0016666666666722563" y="1" width="120" height="30" as="geometry" />
        </mxCell>
        <mxCell id="-8c4adJR8eqZ8qMmH8AK-60" value="" style="endArrow=none;dashed=1;html=1;rounded=0;startSize=7;jumpSize=16;fontSize=16;" parent="-8c4adJR8eqZ8qMmH8AK-53" edge="1">
          <mxGeometry width="50" height="50" relative="1" as="geometry">
            <mxPoint x="148" y="63" as="sourcePoint" />
            <mxPoint x="188" y="63" as="targetPoint" />
          </mxGeometry>
        </mxCell>
        <mxCell id="-8c4adJR8eqZ8qMmH8AK-61" value="" style="endArrow=none;dashed=1;html=1;rounded=0;startSize=7;jumpSize=16;fontSize=16;" parent="-8c4adJR8eqZ8qMmH8AK-53" edge="1">
          <mxGeometry width="50" height="50" relative="1" as="geometry">
            <mxPoint x="38" y="63" as="sourcePoint" />
            <mxPoint x="78" y="63" as="targetPoint" />
          </mxGeometry>
        </mxCell>
        <mxCell id="-8c4adJR8eqZ8qMmH8AK-62" style="edgeStyle=orthogonalEdgeStyle;rounded=0;orthogonalLoop=1;jettySize=auto;html=1;entryX=0;entryY=0.5;entryDx=0;entryDy=0;exitX=0.17;exitY=1.009;exitDx=0;exitDy=0;strokeColor=#8A6E50;exitPerimeter=0;" parent="1" source="-8c4adJR8eqZ8qMmH8AK-34" target="vJWkl1YuLdmYbuqkYf-Q-82" edge="1">
          <mxGeometry relative="1" as="geometry">
            <Array as="points">
              <mxPoint x="97" y="1620" />
              <mxPoint x="-50" y="1620" />
              <mxPoint x="-50" y="460" />
            </Array>
            <mxPoint x="-136" y="1828" as="sourcePoint" />
            <mxPoint x="-220" y="850" as="targetPoint" />
          </mxGeometry>
        </mxCell>
        <mxCell id="-8c4adJR8eqZ8qMmH8AK-63" style="edgeStyle=orthogonalEdgeStyle;rounded=0;orthogonalLoop=1;jettySize=auto;html=1;entryX=0;entryY=0.5;entryDx=0;entryDy=0;exitX=0.161;exitY=1.029;exitDx=0;exitDy=0;strokeColor=#8A6E50;exitPerimeter=0;" parent="1" source="-8c4adJR8eqZ8qMmH8AK-54" target="vJWkl1YuLdmYbuqkYf-Q-83" edge="1">
          <mxGeometry relative="1" as="geometry">
            <Array as="points">
              <mxPoint x="94" y="1710" />
              <mxPoint x="-50" y="1710" />
              <mxPoint x="-50" y="460" />
            </Array>
            <mxPoint x="-126" y="1838" as="sourcePoint" />
            <mxPoint x="-210" y="860" as="targetPoint" />
          </mxGeometry>
        </mxCell>
        <mxCell id="-8c4adJR8eqZ8qMmH8AK-64" style="edgeStyle=orthogonalEdgeStyle;rounded=0;orthogonalLoop=1;jettySize=auto;html=1;entryX=0;entryY=0.5;entryDx=0;entryDy=0;exitX=0.484;exitY=1.033;exitDx=0;exitDy=0;exitPerimeter=0;" parent="1" source="-8c4adJR8eqZ8qMmH8AK-34" target="z46Pf0Tg11XiV23-vNkJ-64" edge="1">
          <mxGeometry relative="1" as="geometry">
            <Array as="points">
              <mxPoint x="203" y="1630" />
              <mxPoint x="-90" y="1630" />
              <mxPoint x="-90" y="1021" />
            </Array>
          </mxGeometry>
        </mxCell>
        <mxCell id="-8c4adJR8eqZ8qMmH8AK-65" style="edgeStyle=orthogonalEdgeStyle;rounded=0;orthogonalLoop=1;jettySize=auto;html=1;entryX=0;entryY=0.5;entryDx=0;entryDy=0;exitX=0.501;exitY=0.962;exitDx=0;exitDy=0;exitPerimeter=0;" parent="1" source="-8c4adJR8eqZ8qMmH8AK-55" target="z46Pf0Tg11XiV23-vNkJ-56" edge="1">
          <mxGeometry relative="1" as="geometry">
            <Array as="points">
              <mxPoint x="207" y="1699" />
              <mxPoint x="207" y="1720" />
              <mxPoint x="-130" y="1720" />
              <mxPoint x="-130" y="1101" />
            </Array>
          </mxGeometry>
        </mxCell>
      </root>
    </mxGraphModel>
  </diagram>
</mxfile>
